<svg id="Layer_1" data-name="Layer 1" xmlns="http://www.w3.org/2000/svg" width="102.75" height="21" viewBox="0 0 102.75 21"><defs><style>.cls-1{fill:#231f20;}</style></defs><title>woow-logo-black</title><path class="cls-1" d="M6.87,20.1L0.16,1.61A1.9,1.9,0,0,1,0,1,1,1,0,0,1,1,0a1.08,1.08,0,0,1,1,.85L8,18.21,14,0.78A1,1,0,0,1,15,0h0.08a1,1,0,0,1,1,.77L22,18.22,28,0.79A1,1,0,0,1,29,0,1,1,0,0,1,30,1a1.9,1.9,0,0,1-.16.68L23.1,20.12A1.18,1.18,0,0,1,22,21H21.93a1.14,1.14,0,0,1-1.09-.93L15,3.28,9.12,20.06A1.14,1.14,0,0,1,8,21H8A1.18,1.18,0,0,1,6.87,20.1Z"/><path class="cls-1" d="M79.62,20.1L72.91,1.61A1.89,1.89,0,0,1,72.75,1a1,1,0,0,1,1-1,1.08,1.08,0,0,1,1,.85l5.94,17.36,6-17.43a1,1,0,0,1,1-.76h0.08a1,1,0,0,1,1,.77l5.94,17.44,6-17.43a1,1,0,0,1,1-.76,1,1,0,0,1,1,.93,1.91,1.91,0,0,1-.16.68L95.85,20.12a1.18,1.18,0,0,1-1.09.88H94.68a1.14,1.14,0,0,1-1.09-.93L87.77,3.28l-5.9,16.79a1.14,1.14,0,0,1-1.09.92H80.7A1.18,1.18,0,0,1,79.62,20.1Z"/><path d="M60.56,0a10.51,10.51,0,0,0-9.19,5.42,10.5,10.5,0,1,0,0,10.16A10.5,10.5,0,1,0,60.56,0ZM42.19,15.12a4.62,4.62,0,1,1,4.62-4.62A4.63,4.63,0,0,1,42.19,15.12Zm18.37,0a4.62,4.62,0,1,1,4.62-4.62A4.63,4.63,0,0,1,60.56,15.12Z"/></svg>