<svg id="Arrow_white_right" xmlns="http://www.w3.org/2000/svg" width="40" height="40" viewBox="0 0 40 40">
  <path id="Path_2192" data-name="Path 2192" d="M0,6A6,6,0,0,1,6,0H34a6,6,0,0,1,6,6V34a6,6,0,0,1-6,6H6a6,6,0,0,1-6-6Z" fill="#fafafa"/>
  <path id="Path_2193" data-name="Path 2193" d="M21.849,26.183a1.083,1.083,0,0,1-1.532-1.532L24.968,20l-4.651-4.651a1.083,1.083,0,0,1,1.532-1.532l5.417,5.417a1.083,1.083,0,0,1,0,1.532Zm-7.583,0a1.083,1.083,0,1,1-1.532-1.532L17.384,20l-4.651-4.651a1.083,1.083,0,1,1,1.532-1.532l5.417,5.417a1.083,1.083,0,0,1,0,1.532Z" fill="#292930" fill-rule="evenodd"/>
</svg>
