<svg width="40" height="40" viewBox="0 0 40 40" fill="none" xmlns="http://www.w3.org/2000/svg">
<path d="M0 6C0 2.68629 2.68629 0 6 0H34C37.3137 0 40 2.68629 40 6V34C40 37.3137 37.3137 40 34 40H6C2.68629 40 0 37.3137 0 34V6Z" fill="#FAFAFA"/>
<path fill-rule="evenodd" clip-rule="evenodd" d="M18.151 26.1827C18.574 26.6058 19.26 26.6058 19.683 26.1827C20.1061 25.7596 20.1061 25.0737 19.683 24.6506L15.0324 20L19.683 15.3494C20.1061 14.9263 20.1061 14.2404 19.683 13.8173C19.26 13.3942 18.574 13.3942 18.151 13.8173L12.7343 19.234C12.3112 19.657 12.3112 20.343 12.7343 20.766L18.151 26.1827ZM25.7343 26.1827C26.1574 26.6058 26.8433 26.6058 27.2664 26.1827C27.6894 25.7596 27.6894 25.0737 27.2664 24.6506L22.6157 20L27.2664 15.3494C27.6894 14.9263 27.6894 14.2404 27.2664 13.8173C26.8433 13.3942 26.1574 13.3942 25.7343 13.8173L20.3176 19.234C19.8946 19.657 19.8946 20.343 20.3176 20.766L25.7343 26.1827Z" fill="#3F3F46"/>
</svg>
