<svg width="40" height="40" viewBox="0 0 40 40" fill="none" xmlns="http://www.w3.org/2000/svg">
<path d="M0 6C0 2.68629 2.68629 0 6 0H34C37.3137 0 40 2.68629 40 6V34C40 37.3137 37.3137 40 34 40H6C2.68629 40 0 37.3137 0 34V6Z" fill="#FAFAFA"/>
<path fill-rule="evenodd" clip-rule="evenodd" d="M21.849 26.1827C21.426 26.6058 20.74 26.6058 20.317 26.1827C19.8939 25.7596 19.8939 25.0737 20.317 24.6506L24.9676 20L20.317 15.3494C19.8939 14.9263 19.8939 14.2404 20.317 13.8173C20.74 13.3942 21.426 13.3942 21.849 13.8173L27.2657 19.234C27.6888 19.657 27.6888 20.343 27.2657 20.766L21.849 26.1827ZM14.2657 26.1827C13.8426 26.6058 13.1567 26.6058 12.7336 26.1827C12.3106 25.7596 12.3106 25.0737 12.7336 24.6506L17.3843 20L12.7336 15.3494C12.3106 14.9263 12.3106 14.2404 12.7336 13.8173C13.1567 13.3942 13.8426 13.3942 14.2657 13.8173L19.6824 19.234C20.1054 19.657 20.1054 20.343 19.6824 20.766L14.2657 26.1827Z" fill="#3F3F46"/>
</svg>
