<svg xmlns="http://www.w3.org/2000/svg" width="40" height="40" viewBox="0 0 40 40"><defs><style>.a{fill:#fffefe;}.b{fill:#292930;fill-rule:evenodd;}</style></defs><rect class="a" width="40" height="40" rx="6"/><g transform="translate(11 11)"><path class="b" d="M14515.331,454.139a2,2,0,0,1,0-4,2,2,0,0,1,0,4Zm3.262.287a2.41,2.41,0,0,1,1.561,1.759l1.985-1.526a2.013,2.013,0,0,1,3.263,1.563v7.847a2.014,2.014,0,0,1-3.263,1.563l-1.985-1.526a2.808,2.808,0,0,1-2.838,2.045h-8.935a2.955,2.955,0,0,1-2.979-3v-6.006a3.235,3.235,0,0,1,.993-2.291,4.412,4.412,0,0,1-.993-2.715,3.938,3.938,0,0,1,3.971-4,3.951,3.951,0,0,0,5.959,0,4.061,4.061,0,0,1,4.112,4A3.418,3.418,0,0,1,14518.593,454.426Zm-7.235-2.289a1.985,1.985,0,1,1-1.985-2A1.97,1.97,0,0,1,14511.357,452.136Zm-2.977,4h8.935a.988.988,0,0,1,1,1v6.006a.988.988,0,0,1-1,1h-8.935a.985.985,0,0,1-.994-1v-6.006A.985.985,0,0,1,14508.381,456.141Zm12.055,2.484v3.041l2.979,2.4v-7.847Z" transform="translate(-14505.401 -448.132)"/></g></svg>