<svg xmlns="http://www.w3.org/2000/svg" width="40" height="40" viewBox="0 0 40 40"><defs><style>.a{fill:#292930;}.b{fill:#fffefe;fill-rule:evenodd;}</style></defs><g transform="translate(-1053 -754)"><rect class="a" width="40" height="40" rx="6" transform="translate(1053 754)"/><path class="b" d="M4365.59,398.1v-9.05a3,3,0,0,1,2.991-3.018h14a3.012,3.012,0,0,1,3,3.018v9.05a3.012,3.012,0,0,1-3,3.018h-4.252l-2.594,2.293a2.5,2.5,0,0,1-4.154-1.892v-.4h-3A3,3,0,0,1,4365.59,398.1Zm7.754,2.064a1.992,1.992,0,0,0-1.758-1.057h-3a1,1,0,0,1-.992-1.006v-9.05a1,1,0,0,1,.992-1.006h14a1.008,1.008,0,0,1,1.006,1.006v9.05a1.008,1.008,0,0,1-1.006,1.006h-4.252a2.013,2.013,0,0,0-1.318.5l-2.594,2.293a.5.5,0,0,1-.836-.378v-.585a1.89,1.89,0,0,0-.228-.738Zm-2.765-8.13a1,1,0,0,1,1.006-1h8.009a1,1,0,0,1,0,2h-8.009A1.006,1.006,0,0,1,4370.579,392.03Zm1.006,2a1,1,0,1,0,0,2h5a1,1,0,0,0,0-2Z" transform="translate(-3302.59 378.971)"/></g></svg>