<svg xmlns="http://www.w3.org/2000/svg" width="15.984" height="16" viewBox="0 0 15.984 16"><defs><style>.a{fill:#5956e9;fill-rule:evenodd;}</style></defs><path class="a" d="M27775.2,323.22h-11.223a2.435,2.435,0,0,0-2.381,2.4v11.2a2.435,2.435,0,0,0,2.381,2.4h11.223a2.361,2.361,0,0,0,2.381-2.4v-11.2A2.361,2.361,0,0,0,27775.2,323.22Zm-12.016,2.4a.787.787,0,0,1,.793-.8h11.223a.789.789,0,0,1,.795.8v11.2a.789.789,0,0,1-.795.8h-11.223a.787.787,0,0,1-.793-.8Zm10.2,3.741a.754.754,0,0,0,0-1.13.8.8,0,0,0-1.135.049l-3.854,4.125-1.361-1.7a.811.811,0,0,0-1.133-.1.853.853,0,0,0-.113,1.127l2.039,2.4a.7.7,0,0,0,.568.288.663.663,0,0,0,.566-.26Z" transform="translate(-27761.598 -323.22)"/></svg>