<?xml version="1.0" encoding="UTF-8" standalone="no" ?>
<!DOCTYPE svg PUBLIC "-//W3C//DTD SVG 1.1//EN" "http://www.w3.org/Graphics/SVG/1.1/DTD/svg11.dtd">
<svg xmlns="http://www.w3.org/2000/svg" xmlns:xlink="http://www.w3.org/1999/xlink" version="1.1" width="40" height="40" viewBox="0 0 40 40" xml:space="preserve">
<desc>Created with Fabric.js 3.6.3</desc>
<defs>
</defs>
<g transform="matrix(1 0 0 1 20 20)"  >
<rect style="stroke: none; stroke-width: 1; stroke-dasharray: none; stroke-linecap: butt; stroke-dashoffset: 0; stroke-linejoin: miter; stroke-miterlimit: 4; fill: rgb(233,31,31); fill-rule: nonzero; opacity: 1;"  x="-20" y="-20" rx="6" ry="6" width="40" height="40" />
</g>
<g transform="matrix(1 0 0 1 19.98 20)"  >
<path style="stroke: none; stroke-width: 1; stroke-dasharray: none; stroke-linecap: butt; stroke-dashoffset: 0; stroke-linejoin: miter; stroke-miterlimit: 4; fill: rgb(255,254,254); fill-rule: evenodd; opacity: 1;"  transform=" translate(-29910.06, -394.03)" d="M 29917.855 387.547 a 1.147 1.147 0 0 0 0 -1.257 a 0.891 0.891 0 0 0 -1.262 0 l -6.551 6.482 l -6.422 -6.482 a 0.894 0.894 0 0 0 -1.262 0 a 0.843 0.843 0 0 0 0 1.257 l 6.426 6.482 l -6.426 6.483 a 0.843 0.843 0 0 0 0 1.257 a 0.894 0.894 0 0 0 1.262 0 l 6.422 -6.483 l 6.551 6.483 a 0.891 0.891 0 0 0 1.262 0 a 1.147 1.147 0 0 0 0 -1.257 l -6.551 -6.483 Z" stroke-linecap="round" />
</g>
</svg>