<svg xmlns="http://www.w3.org/2000/svg" width="40" height="40" viewBox="0 0 40 40"><defs><style>.a{fill:#292930;}.b{fill:#fffefe;fill-rule:evenodd;}</style></defs><g transform="translate(387)"><rect class="a" width="40" height="40" rx="6" transform="translate(-387)"/><path class="b" d="M29917.855,387.547a1.147,1.147,0,0,0,0-1.257.891.891,0,0,0-1.262,0l-6.551,6.482-6.422-6.482a.894.894,0,0,0-1.262,0,.843.843,0,0,0,0,1.257l6.426,6.482-6.426,6.483a.843.843,0,0,0,0,1.257.894.894,0,0,0,1.262,0l6.422-6.483,6.551,6.483a.891.891,0,0,0,1.262,0,1.147,1.147,0,0,0,0-1.257l-6.551-6.483Z" transform="translate(-30277.078 -374.029)"/></g></svg>