<svg xmlns="http://www.w3.org/2000/svg" width="20" height="20" viewBox="0 0 20 20"><defs><style>.a{fill:#292930;}.b{fill:#fffefe;fill-rule:evenodd;}</style></defs><g transform="translate(-1680 -56)"><rect class="a" width="20" height="20" transform="translate(1680 56)"/><path class="b" d="M29909.967,386.788a.574.574,0,0,0,0-.629.445.445,0,0,0-.631,0l-3.275,3.241-3.211-3.241a.447.447,0,0,0-.631,0,.421.421,0,0,0,0,.629l3.213,3.241-3.213,3.241a.421.421,0,0,0,0,.629.447.447,0,0,0,.631,0l3.211-3.241,3.275,3.241a.445.445,0,0,0,.631,0,.574.574,0,0,0,0-.629l-3.275-3.241Z" transform="translate(-28216.078 -324.029)"/></g></svg>