<svg xmlns="http://www.w3.org/2000/svg" width="40" height="40" viewBox="0 0 40 40"><defs><style>.a,.d{fill:none;}.a{stroke:#292930;}.b{fill:#292930;}.c{stroke:none;}</style></defs><g transform="translate(0.246)"><g transform="translate(0)"><g class="a" transform="translate(-0.246)"><rect class="c" width="40" height="40" rx="6"/><rect class="d" x="0.5" y="0.5" width="39" height="39" rx="5.5"/></g></g><path class="b" d="M14.619,0H3.383A3.382,3.382,0,0,0,0,3.383V14.617A3.382,3.382,0,0,0,3.383,18H14.617A3.382,3.382,0,0,0,18,14.617V3.383A3.381,3.381,0,0,0,14.619,0Zm.508,4.22a3.352,3.352,0,0,0-1-.143c-1.024,0-1.453.8-1.453,1.781v.511h2.007V8.662H12.69v7.719H9.557V8.663H8.247V6.37h1.31V5.98a4.564,4.564,0,0,1,1.27-3.357,4.053,4.053,0,0,1,2.764-1,6,6,0,0,1,1.659.205Z" transform="translate(10.754 11)"/></g></svg>