<svg xmlns="http://www.w3.org/2000/svg" width="15" height="15" viewBox="0 0 15 15"><defs><style>.a{fill:#292930;fill-rule:evenodd;}</style></defs><path class="a" d="M30164.8,451.16a.744.744,0,1,1-1.488,0v-1.194l-3.3,3.221a.754.754,0,0,1-1.064-.007.705.705,0,0,1,0-1.06l3.3-3.2h-1.17a.75.75,0,0,1,0-1.5h2.977a.739.739,0,0,1,.746.749Zm-15,0a.745.745,0,1,0,1.49,0v-1.175l3.191,3.2a.751.751,0,0,0,1.061,0,.705.705,0,0,0,0-1.06l-3.189-3.2h1.17a.75.75,0,0,0,0-1.5h-2.979a.739.739,0,0,0-.744.75Zm14.254,6.779a.739.739,0,0,1,.746.749v2.987a.739.739,0,0,1-.746.749h-2.977a.75.75,0,0,1,0-1.5h1.17l-3.3-3.263a.705.705,0,0,1,0-1.06.754.754,0,0,1,1.064,0l3.3,3.263v-1.176A.737.737,0,0,1,30164.057,457.939Zm-14.254.749a.745.745,0,1,1,1.49,0v1.156l3.191-3.24a.751.751,0,0,1,1.061-.007.705.705,0,0,1,0,1.06l-3.189,3.266h1.17a.75.75,0,0,1,0,1.5h-2.979a.739.739,0,0,1-.744-.75Z" transform="translate(-30149.803 -447.424)"/></svg>