<svg xmlns="http://www.w3.org/2000/svg" width="30" height="30" viewBox="0 0 30 30"><defs><style>.a{fill:#fffefe;}.b{fill:#292930;fill-rule:evenodd;}</style></defs><g transform="translate(-658 -251)"><circle class="a" cx="15" cy="15" r="15" transform="translate(658 251)"/><path class="b" d="M13232.072,323.22h-3.155a2,2,0,0,0-2.027,1.988v3.181a2,2,0,0,0,2.027,1.988h3.155a2,2,0,0,0,2.027-1.988v-3.181A2,2,0,0,0,13232.072,323.22Zm-3.606,1.988a.443.443,0,0,1,.451-.4h3.155c.226,0,.338.178.338.4v3.181c0,.22-.112.4-.338.4h-3.155a.443.443,0,0,1-.451-.4Zm-8.112-1.241-1.465,1.425a1.965,1.965,0,0,0,0,2.811l1.465,1.425a1.994,1.994,0,0,0,2.816,0l1.353-1.425a1.965,1.965,0,0,0,0-2.811l-1.353-1.425A1.994,1.994,0,0,0,13220.354,323.967Zm-.338,3.112a.511.511,0,0,1,0-.562l1.465-1.425c.113-.155.339-.155.563,0l1.352,1.425a.318.318,0,0,1,0,.562l-1.352,1.425c-.225.156-.45.156-.563,0Zm3.268,4.888h-3.154a2,2,0,0,0-2.029,1.988v3.181a2,2,0,0,0,2.029,1.988h3.154a2,2,0,0,0,2.028-1.988v-3.181A2,2,0,0,0,13223.283,331.967Zm-3.493,1.988c0-.22.113-.4.339-.4h3.154a.442.442,0,0,1,.45.4v3.181a.442.442,0,0,1-.45.4h-3.154c-.226,0-.339-.178-.339-.4Zm10.7,5.168a3.578,3.578,0,1,1,0-7.156,3.578,3.578,0,1,1,0,7.156Zm0-5.566a1.989,1.989,0,1,0,0,3.976,1.99,1.99,0,0,0,0-3.976Z" transform="translate(-12553.1 -65.22)"/></g></svg>