<svg xmlns="http://www.w3.org/2000/svg" width="40" height="40" viewBox="0 0 40 40"><defs><style>.a{fill:#fffefe;}.b{fill:#292930;}</style></defs><g transform="translate(-729 -467)"><circle class="a" cx="20" cy="20" r="20" transform="translate(729 467)"/><path class="b" d="M531.475,426.523a.942.942,0,0,0-.912-.745l-.2.015a.968.968,0,0,0-.593.41.9.9,0,0,0-.122.714,7.121,7.121,0,0,1,.137,1.428V431.4h-.76v-3.632a.934.934,0,0,0-.927-.942.947.947,0,0,0-.942.942V431.4h-6.549v-3.632a2.251,2.251,0,0,0-.821-2.051l-3.556-3.51.669-.775,1.064,1.033.03.076.258.258a2.533,2.533,0,0,0,2.112.927h.805a2.691,2.691,0,0,0,5.379.046,3.418,3.418,0,0,1,2.4,1.459.939.939,0,0,0,1.687-.38.959.959,0,0,0-.152-.7,5.29,5.29,0,0,0-3.146-2.127,4.627,4.627,0,0,0,1.17-2.826v-2.9a4.142,4.142,0,0,0-3.085-3.738,4.877,4.877,0,0,0-1.656-.289,3.4,3.4,0,0,0-2.416.866c-.881.2-2.173.957-2.127,3.662v2.4a4.479,4.479,0,0,0,1.033,2.659c-.289,0-.334-.046-.684-.4l-2.842-2.826a2.485,2.485,0,0,0-1.808-.82,1.827,1.827,0,0,0-.577.076,2.43,2.43,0,0,0-1,4.088l5.121,5.075c.273.258.273.258.273.714v3.717a1.785,1.785,0,0,0,1.784,1.784h9.363a1.785,1.785,0,0,0,1.784-1.784v-3.139A8.826,8.826,0,0,0,531.475,426.523Zm-7.613-2.036a.879.879,0,0,1-.79-.714,3.044,3.044,0,0,0,1.6,0A.9.9,0,0,1,523.862,424.487Zm-2.766-7.7c-.015-1.17.258-1.793.805-1.839a1.052,1.052,0,0,0,.669-.365,1.478,1.478,0,0,1,1.185-.441,3.422,3.422,0,0,1,1.079.182c.836.289,1.808.973,1.808,1.975v.775a2.537,2.537,0,0,1-.669-.517,3.616,3.616,0,0,0-2.583-1.2H522.8a1.5,1.5,0,0,0-1.413.775,2.523,2.523,0,0,0-.258,1.033c-.015.091-.03.228-.03.228Zm.061,2.492a1.654,1.654,0,0,0,1.535-.805,2.553,2.553,0,0,0,.3-1.125v-.122h.4a1.767,1.767,0,0,1,1.292.7,3.4,3.4,0,0,0,1.96,1.064v.213a3.5,3.5,0,0,1-2.173,2.674,1.709,1.709,0,0,1-.608.137,1.64,1.64,0,0,1-.593-.137,3.525,3.525,0,0,1-2.173-2.6Zm-6.261,1.611-.243-.243a.522.522,0,0,1-.167-.547.546.546,0,0,1,.35-.4.193.193,0,0,1,.091-.015.732.732,0,0,1,.486.274l.167.152Z" transform="translate(225.405 63.73)"/></g></svg>