<svg xmlns="http://www.w3.org/2000/svg" width="40" height="40" viewBox="0 0 40 40"><defs><style>.a{fill:#292930;}.b{fill:#fffefe;fill-rule:evenodd;}</style></defs><g transform="translate(-736 -527)"><circle class="a" cx="20" cy="20" r="20" transform="translate(736 527)"/><path class="b" d="M23854.813,330.654l.744-4.245a3.084,3.084,0,0,1,2.828-2.727l4.619-.447a3.352,3.352,0,0,1,2.682.953l9.084,9.352a3.22,3.22,0,0,1,0,4.677l-4.912,5.056a3.238,3.238,0,0,1-4.619,0l-9.531-9.715A3.435,3.435,0,0,1,23854.813,330.654Zm3.873-4.776a1.136,1.136,0,0,0-1.043.909l-.746,4.245a2.049,2.049,0,0,0,.3.968l9.535,9.715a1.2,1.2,0,0,0,1.637,0l4.914-5.055a1.074,1.074,0,0,0,0-1.559l-9.232-9.352a.915.915,0,0,0-.895-.317Zm3.129,2.56a1.186,1.186,0,0,1,0,1.653,1.153,1.153,0,0,1-1.641,0,1.186,1.186,0,0,1,0-1.653A1.153,1.153,0,0,1,23861.814,328.438Z" transform="translate(-23108.775 212.779)"/></g></svg>