<svg xmlns="http://www.w3.org/2000/svg" width="20.002" height="19.931" viewBox="0 0 20.002 19.931"><defs><style>.a{fill:#292930;fill-rule:evenodd;}</style></defs><path class="a" d="M23669.389,261.116a1,1,0,0,0,0,1.994v0h1.27l2.824,13.163a.971.971,0,0,0,.988.788h1.977a1.993,1.993,0,1,0,1.977,1.992,1.961,1.961,0,0,0-1.977-1.992h5.934a1.993,1.993,0,1,0,1.973,1.992,1.959,1.959,0,0,0-1.973-1.992h2.539a1,1,0,0,0,0-1.992h-9.742l-.141-1h9.316a1.062,1.062,0,0,0,.992-.647l2.965-7.972a.759.759,0,0,0-.141-.918.809.809,0,0,0-.707-.428h-14.547l-.422-2.2a1.092,1.092,0,0,0-.988-.788h-2.117v0Zm3.953,4.983,1.273,5.979h9.035l2.258-5.979Z" transform="translate(-23668.4 -261.116)"/></svg>