<svg width="69" height="40" viewBox="0 0 69 40" fill="none" xmlns="http://www.w3.org/2000/svg">
<g clip-path="url(#clip0_1209_26782)">
<path d="M67.3897 23.54L52.6897 38.24C51.5597 39.37 50.0297 40 48.4397 40H12.5897C11.5297 40 10.5097 39.58 9.75969 38.83L2.09969 31.17C1.34969 30.42 0.929688 29.4 0.929688 28.34V6C0.929688 2.69 3.61969 0 6.92969 0H48.4397C50.0297 0 51.5597 0.63 52.6897 1.76L67.3897 16.46C69.3497 18.42 69.3497 21.58 67.3897 23.54Z" fill="#FAFAFA"/>
<path d="M12.9297 30V40H12.5897C11.5297 40 10.5097 39.58 9.75969 38.83L2.09969 31.17C1.34969 30.42 0.929688 29.4 0.929688 28.34V28H10.9297C12.0297 28 12.9297 28.9 12.9297 30V30Z" fill="#3F3F46"/>
<path d="M39.032 16.064C39.032 13.208 36.728 11 32.888 11C29.648 11 27.464 12.56 26 15.728L28.976 17.072C29.696 15.272 30.776 13.952 32.552 13.952C34.16 13.952 34.928 15.056 34.928 16.208C34.928 17.936 33.224 19.184 31.352 20.6C29.552 21.992 27.488 23.456 26 25.424V28.016H38.984V24.704H30.584V24.656C31.712 23.672 33.104 22.832 34.448 21.968C36.704 20.504 39.032 18.92 39.032 16.064Z" fill="#3F3F46"/>
</g>
<defs>
<clipPath id="clip0_1209_26782">
<rect width="67.93" height="40" fill="white" transform="translate(0.929688)"/>
</clipPath>
</defs>
</svg>
