<svg width="69" height="40" viewBox="0 0 69 40" fill="none" xmlns="http://www.w3.org/2000/svg">
<g clip-path="url(#clip0_1209_27034)">
<path d="M67.3194 23.54L52.6194 38.24C51.4894 39.37 49.9594 40 48.3694 40H12.5194C11.4594 40 10.4394 39.58 9.68937 38.83L2.02937 31.17C1.27937 30.42 0.859375 29.4 0.859375 28.34V6C0.859375 2.69 3.54938 0 6.85938 0H48.3694C49.9594 0 51.4894 0.63 52.6194 1.76L67.3194 16.46C69.2794 18.42 69.2794 21.58 67.3194 23.54Z" fill="#3F3F46"/>
<path d="M12.8594 30V40H12.5194C11.4594 40 10.4394 39.58 9.68937 38.83L2.02937 31.17C1.27937 30.42 0.859375 29.4 0.859375 28.34V28H10.8594C11.9594 28 12.8594 28.9 12.8594 30V30Z" fill="#FAFAFA"/>
<path d="M26 25.4C27.104 26.744 29.144 28.448 32.96 28.448C36.872 28.448 39.608 26.624 39.608 23.48C39.608 20.168 36.728 19.256 36.008 19.16V19.064C36.752 18.944 39.056 17.912 39.056 15.32C39.056 12.584 36.344 11 32.96 11C29.864 11 27.896 12.176 26.576 13.736L28.784 15.824C29.648 14.84 30.872 13.952 32.552 13.952C34.136 13.952 35.096 14.696 35.096 15.92C35.096 17.216 34.04 18.08 32.192 18.104H30.128V20.864H32.24C34.256 20.864 35.624 21.512 35.624 23.192C35.624 24.608 34.592 25.496 32.672 25.496C30.752 25.472 29.456 24.512 28.376 23.312L26 25.4Z" fill="#FAFAFA"/>
</g>
<defs>
<clipPath id="clip0_1209_27034">
<rect width="67.93" height="40" fill="white" transform="translate(0.859375)"/>
</clipPath>
</defs>
</svg>
