<svg width="68" height="40" viewBox="0 0 68 40" fill="none" xmlns="http://www.w3.org/2000/svg">
<g clip-path="url(#clip0_1159_26558)">
<path d="M66.46 23.54L51.76 38.24C50.63 39.37 49.1 40 47.51 40H11.66C10.6 40 9.58 39.58 8.83 38.83L1.17 31.17C0.42 30.42 0 29.4 0 28.34V6C0 2.69 2.69 0 6 0H47.51C49.1 0 50.63 0.63 51.76 1.76L66.46 16.46C68.42 18.42 68.42 21.58 66.46 23.54Z" fill="#FAFAFA"/>
<path d="M12 30V40H11.66C10.6 40 9.58 39.58 8.83 38.83L1.17 31.17C0.42 30.42 0 29.4 0 28.34V28H10C11.1 28 12 28.9 12 30V30Z" fill="#3F3F46"/>
<path d="M33.368 25.4V13.232L33.392 11H31.088L26 13.616V17.024H26.048L29.192 15.416H29.24V25.4L29.216 27.632H33.392L33.368 25.4Z" fill="#3F3F46"/>
</g>
<defs>
<clipPath id="clip0_1159_26558">
<rect width="67.93" height="40" fill="white"/>
</clipPath>
</defs>
</svg>
