<svg width="69" height="40" viewBox="0 0 69 40" fill="none" xmlns="http://www.w3.org/2000/svg">
<g clip-path="url(#clip0_1209_26946)">
<path d="M66.8272 23.54L52.1272 38.24C50.9972 39.37 49.4672 40 47.8772 40H12.0272C10.9672 40 9.94719 39.58 9.19719 38.83L1.53719 31.17C0.787187 30.42 0.367188 29.4 0.367188 28.34V6C0.367188 2.69 3.05719 0 6.36719 0H47.8772C49.4672 0 50.9972 0.63 52.1272 1.76L66.8272 16.46C68.7872 18.42 68.7872 21.58 66.8272 23.54Z" fill="#FAFAFA"/>
<path d="M12.3672 30V40H12.0272C10.9672 40 9.94719 39.58 9.19719 38.83L1.53719 31.17C0.787187 30.42 0.367188 29.4 0.367188 28.34V28H10.3672C11.4672 28 12.3672 28.9 12.3672 30V30Z" fill="#3F3F46"/>
<path d="M27.7352 25.784V13.616L27.7592 11.384H25.4552L20.3672 14V17.408H20.4152L23.5592 15.8H23.6072V25.784L23.5832 28.016H27.7592L27.7352 25.784Z" fill="#3F3F46"/>
<path d="M37.8842 11C33.5642 11 30.8042 14.912 30.8042 19.712C30.8042 24.464 33.5642 28.448 37.8842 28.448C42.2522 28.448 44.9642 24.464 44.9642 19.712C44.9642 14.912 42.2522 11 37.8842 11ZM37.8842 13.952C39.7082 13.952 40.8842 15.848 40.8842 19.688C40.8842 23.552 39.7082 25.496 37.8842 25.496C36.0842 25.496 34.8602 23.552 34.8602 19.688C34.8602 15.848 36.0842 13.952 37.8842 13.952Z" fill="#3F3F46"/>
</g>
<defs>
<clipPath id="clip0_1209_26946">
<rect width="67.93" height="40" fill="white" transform="translate(0.367188)"/>
</clipPath>
</defs>
</svg>
