<svg width="69" height="40" viewBox="0 0 69 40" fill="none" xmlns="http://www.w3.org/2000/svg">
<g clip-path="url(#clip0_1209_26962)">
<path d="M66.7569 23.54L52.0569 38.24C50.9269 39.37 49.3969 40 47.8069 40H11.9569C10.8969 40 9.87687 39.58 9.12687 38.83L1.46687 31.17C0.716875 30.42 0.296875 29.4 0.296875 28.34V6C0.296875 2.69 2.98688 0 6.29688 0H47.8069C49.3969 0 50.9269 0.63 52.0569 1.76L66.7569 16.46C68.7169 18.42 68.7169 21.58 66.7569 23.54Z" fill="#FAFAFA"/>
<path d="M12.2969 30V40H11.9569C10.8969 40 9.87687 39.58 9.12687 38.83L1.46687 31.17C0.716875 30.42 0.296875 29.4 0.296875 28.34V28H10.2969C11.3969 28 12.2969 28.9 12.2969 30V30Z" fill="#3F3F46"/>
<path d="M29.6649 25.4V13.232L29.6889 11H27.3849L22.2969 13.616V17.024H22.3449L25.4889 15.416H25.5369V25.4L25.5129 27.632H29.6889L29.6649 25.4Z" fill="#3F3F46"/>
<path d="M40.0477 25.4V13.232L40.0717 11H37.7677L32.6797 13.616V17.024H32.7277L35.8717 15.416H35.9197V25.4L35.8957 27.632H40.0717L40.0477 25.4Z" fill="#3F3F46"/>
</g>
<defs>
<clipPath id="clip0_1209_26962">
<rect width="67.93" height="40" fill="white" transform="translate(0.296875)"/>
</clipPath>
</defs>
</svg>
