<svg width="69" height="40" viewBox="0 0 69 40" fill="none" xmlns="http://www.w3.org/2000/svg">
<g clip-path="url(#clip0_1209_26866)">
<path d="M67.1787 23.54L52.4787 38.24C51.3487 39.37 49.8187 40 48.2287 40H12.3787C11.3187 40 10.2987 39.58 9.54875 38.83L1.88875 31.17C1.13875 30.42 0.71875 29.4 0.71875 28.34V6C0.71875 2.69 3.40875 0 6.71875 0H48.2287C49.8187 0 51.3487 0.63 52.4787 1.76L67.1787 16.46C69.1387 18.42 69.1387 21.58 67.1787 23.54Z" fill="#FAFAFA"/>
<path d="M12.7188 30V40H12.3787C11.3187 40 10.2987 39.58 9.54875 38.83L1.88875 31.17C1.13875 30.42 0.71875 29.4 0.71875 28.34V28H10.7188C11.8188 28 12.7188 28.9 12.7188 30V30Z" fill="#3F3F46"/>
<path d="M25.7188 24.92C26.9668 26.696 29.3428 28.064 32.5108 28.064C36.1828 28.064 39.3267 26.192 39.3267 22.304C39.3267 18.608 36.4468 16.856 33.3267 16.856C31.8147 16.856 30.7348 17.312 29.8948 17.864H29.8468L30.1348 14.24H37.8628L38.2468 11H27.2788L26.5347 19.664L29.4148 20.912C29.7508 20.6 30.6147 19.784 32.2467 19.784C34.0947 19.784 35.2467 20.768 35.2467 22.496C35.2467 24.128 34.1668 25.136 32.3188 25.136C30.5908 25.136 29.3668 24.296 28.1907 23L25.7188 24.92Z" fill="#3F3F46"/>
</g>
<defs>
<clipPath id="clip0_1209_26866">
<rect width="67.93" height="40" fill="white" transform="translate(0.71875)"/>
</clipPath>
</defs>
</svg>
