<svg width="69" height="40" viewBox="0 0 69 40" fill="none" xmlns="http://www.w3.org/2000/svg">
<g clip-path="url(#clip0_1209_27038)">
<path d="M67.0381 23.54L52.3381 38.24C51.2081 39.37 49.6781 40 48.0881 40H12.2381C11.1781 40 10.1581 39.58 9.40812 38.83L1.74812 31.17C0.998125 30.42 0.578125 29.4 0.578125 28.34V6C0.578125 2.69 3.26813 0 6.57812 0H48.0881C49.6781 0 51.2081 0.63 52.3381 1.76L67.0381 16.46C68.9981 18.42 68.9981 21.58 67.0381 23.54Z" fill="#3F3F46"/>
<path d="M12.5781 30V40H12.2381C11.1781 40 10.1581 39.58 9.40812 38.83L1.74812 31.17C0.998125 30.42 0.578125 29.4 0.578125 28.34V28H10.5781C11.6781 28 12.5781 28.9 12.5781 30V30Z" fill="#FAFAFA"/>
<path d="M27.3541 27.632H32.2021C33.2101 21.776 36.2341 16.208 38.1541 13.136V11H25.8421L25.5781 14.36H33.9541V14.408C31.3381 18.392 28.9621 22.616 27.3541 27.632Z" fill="#FAFAFA"/>
</g>
<defs>
<clipPath id="clip0_1209_27038">
<rect width="67.93" height="40" fill="white" transform="translate(0.578125)"/>
</clipPath>
</defs>
</svg>
