<svg width="69" height="40" viewBox="0 0 69 40" fill="none" xmlns="http://www.w3.org/2000/svg">
<g clip-path="url(#clip0_1209_26898)">
<path d="M66.9678 23.54L52.2678 38.24C51.1378 39.37 49.6078 40 48.0178 40H12.1678C11.1078 40 10.0878 39.58 9.33781 38.83L1.67781 31.17C0.927812 30.42 0.507812 29.4 0.507812 28.34V6C0.507812 2.69 3.19781 0 6.50781 0H48.0178C49.6078 0 51.1378 0.63 52.2678 1.76L66.9678 16.46C68.9278 18.42 68.9278 21.58 66.9678 23.54Z" fill="#FAFAFA"/>
<path d="M12.5078 30V40H12.1678C11.1078 40 10.0878 39.58 9.33781 38.83L1.67781 31.17C0.927812 30.42 0.507812 29.4 0.507812 28.34V28H10.5078C11.6078 28 12.5078 28.9 12.5078 30V30Z" fill="#3F3F46"/>
<path d="M32.1798 28.472C36.1878 28.472 39.4278 26.744 39.4278 23.408C39.4278 21.104 37.9398 19.88 36.0198 19.04V18.992C37.9638 18.152 38.8278 16.88 38.8278 15.392C38.8278 12.488 35.7078 11 32.5158 11C28.8198 11 26.0358 12.992 26.0358 16.04C26.0358 18.008 27.2838 19.184 28.7238 19.952V20C26.9238 20.792 25.5078 21.944 25.5078 24.008C25.5078 26.96 28.4598 28.472 32.1798 28.472ZM35.4918 23.768C35.4918 24.992 34.2198 25.736 32.3718 25.736C30.6198 25.736 29.1798 25.016 29.1798 23.528C29.1798 22.376 30.0678 21.632 31.5078 21.056C33.6678 21.776 35.4918 22.28 35.4918 23.768ZM29.8518 15.608C29.8518 14.624 30.6438 13.76 32.4438 13.76C34.0758 13.76 35.3718 14.456 35.3718 15.8C35.3718 16.808 34.6038 17.504 33.1158 17.984C31.1718 17.336 29.8518 16.856 29.8518 15.608Z" fill="#3F3F46"/>
</g>
<defs>
<clipPath id="clip0_1209_26898">
<rect width="67.93" height="40" fill="white" transform="translate(0.507812)"/>
</clipPath>
</defs>
</svg>
