<svg width="69" height="40" viewBox="0 0 69 40" fill="none" xmlns="http://www.w3.org/2000/svg">
<g clip-path="url(#clip0_1209_27022)">
<path d="M67.2491 23.54L52.5491 38.24C51.4191 39.37 49.8891 40 48.2991 40H12.4491C11.3891 40 10.3691 39.58 9.61906 38.83L1.95906 31.17C1.20906 30.42 0.789062 29.4 0.789062 28.34V6C0.789062 2.69 3.47906 0 6.78906 0H48.2991C49.8891 0 51.4191 0.63 52.5491 1.76L67.2491 16.46C69.2091 18.42 69.2091 21.58 67.2491 23.54Z" fill="#3F3F46"/>
<path d="M12.7891 30V40H12.4491C11.3891 40 10.3691 39.58 9.61906 38.83L1.95906 31.17C1.20906 30.42 0.789062 29.4 0.789062 28.34V28H10.7891C11.8891 28 12.7891 28.9 12.7891 30V30Z" fill="#FAFAFA"/>
<path d="M25 23.936H33.04V25.4L33.016 27.632H36.832L36.808 25.4V23.936H39.664V21.056H36.808V13.232L36.832 11H32.608L25 21.272V23.936ZM28.504 21.056V21.008L33.04 14.84H33.088L33.04 16.448V21.056H28.504Z" fill="#FAFAFA"/>
</g>
<defs>
<clipPath id="clip0_1209_27022">
<rect width="67.93" height="40" fill="white" transform="translate(0.789062)"/>
</clipPath>
</defs>
</svg>
