<svg width="69" height="40" viewBox="0 0 69 40" fill="none" xmlns="http://www.w3.org/2000/svg">
<g clip-path="url(#clip0_1209_27050)">
<path d="M66.6866 23.54L51.9866 38.24C50.8566 39.37 49.3266 40 47.7366 40H11.8866C10.8266 40 9.80656 39.58 9.05656 38.83L1.39656 31.17C0.646562 30.42 0.226562 29.4 0.226562 28.34V6C0.226562 2.69 2.91656 0 6.22656 0H47.7366C49.3266 0 50.8566 0.63 51.9866 1.76L66.6866 16.46C68.6466 18.42 68.6466 21.58 66.6866 23.54Z" fill="#3F3F46"/>
<path d="M12.2266 30V40H11.8866C10.8266 40 9.80656 39.58 9.05656 38.83L1.39656 31.17C0.646562 30.42 0.226562 29.4 0.226562 28.34V28H10.2266C11.3266 28 12.2266 28.9 12.2266 30V30Z" fill="#FAFAFA"/>
<path d="M27.5946 25.784V13.616L27.6186 11.384H25.3146L20.2266 14V17.408H20.2746L23.4186 15.8H23.4666V25.784L23.4426 28.016H27.6186L27.5946 25.784Z" fill="#FAFAFA"/>
<path d="M43.6956 16.064C43.6956 13.208 41.3916 11 37.5516 11C34.3116 11 32.1276 12.56 30.6636 15.728L33.6396 17.072C34.3596 15.272 35.4396 13.952 37.2156 13.952C38.8236 13.952 39.5916 15.056 39.5916 16.208C39.5916 17.936 37.8876 19.184 36.0156 20.6C34.2156 21.992 32.1516 23.456 30.6636 25.424V28.016H43.6476V24.704H35.2476V24.656C36.3756 23.672 37.7676 22.832 39.1116 21.968C41.3676 20.504 43.6956 18.92 43.6956 16.064Z" fill="#FAFAFA"/>
</g>
<defs>
<clipPath id="clip0_1209_27050">
<rect width="67.93" height="40" fill="white" transform="translate(0.226562)"/>
</clipPath>
</defs>
</svg>
