<svg width="69" height="40" viewBox="0 0 69 40" fill="none" xmlns="http://www.w3.org/2000/svg">
<g clip-path="url(#clip0_1209_27058)">
<path d="M66.6162 23.54L51.9162 38.24C50.7862 39.37 49.2562 40 47.6662 40H11.8162C10.7562 40 9.73625 39.58 8.98625 38.83L1.32625 31.17C0.57625 30.42 0.15625 29.4 0.15625 28.34V6C0.15625 2.69 2.84625 0 6.15625 0H47.6662C49.2562 0 50.7862 0.63 51.9162 1.76L66.6162 16.46C68.5762 18.42 68.5762 21.58 66.6162 23.54Z" fill="#3F3F46"/>
<path d="M12.1562 30V40H11.8162C10.7562 40 9.73625 39.58 8.98625 38.83L1.32625 31.17C0.57625 30.42 0.15625 29.4 0.15625 28.34V28H10.1562C11.2563 28 12.1562 28.9 12.1562 30V30Z" fill="#FAFAFA"/>
<path d="M27.5243 25.784V13.616L27.5483 11.384H25.2443L20.1562 14V17.408H20.2042L23.3483 15.8H23.3963V25.784L23.3723 28.016H27.5483L27.5243 25.784Z" fill="#FAFAFA"/>
<path d="M30.2093 25.4C31.3133 26.744 33.3533 28.448 37.1693 28.448C41.0813 28.448 43.8172 26.624 43.8172 23.48C43.8172 20.168 40.9373 19.256 40.2173 19.16V19.064C40.9613 18.944 43.2652 17.912 43.2652 15.32C43.2652 12.584 40.5533 11 37.1693 11C34.0732 11 32.1052 12.176 30.7852 13.736L32.9932 15.824C33.8572 14.84 35.0812 13.952 36.7612 13.952C38.3452 13.952 39.3053 14.696 39.3053 15.92C39.3053 17.216 38.2492 18.08 36.4012 18.104H34.3373V20.864H36.4492C38.4652 20.864 39.8333 21.512 39.8333 23.192C39.8333 24.608 38.8012 25.496 36.8812 25.496C34.9612 25.472 33.6653 24.512 32.5852 23.312L30.2093 25.4Z" fill="#FAFAFA"/>
</g>
<defs>
<clipPath id="clip0_1209_27058">
<rect width="67.93" height="40" fill="white" transform="translate(0.15625)"/>
</clipPath>
</defs>
</svg>
