<svg width="69" height="40" viewBox="0 0 69 40" fill="none" xmlns="http://www.w3.org/2000/svg">
<g clip-path="url(#clip0_1209_27046)">
<path d="M66.8975 23.54L52.1975 38.24C51.0675 39.37 49.5375 40 47.9475 40H12.0975C11.0375 40 10.0175 39.58 9.2675 38.83L1.6075 31.17C0.8575 30.42 0.4375 29.4 0.4375 28.34V6C0.4375 2.69 3.1275 0 6.4375 0H47.9475C49.5375 0 51.0675 0.63 52.1975 1.76L66.8975 16.46C68.8575 18.42 68.8575 21.58 66.8975 23.54Z" fill="#3F3F46"/>
<path d="M12.4375 30V40H12.0975C11.0375 40 10.0175 39.58 9.2675 38.83L1.6075 31.17C0.8575 30.42 0.4375 29.4 0.4375 28.34V28H10.4375C11.5375 28 12.4375 28.9 12.4375 30V30Z" fill="#FAFAFA"/>
<path d="M31.5335 25.568C30.5015 25.568 29.7335 24.992 29.1575 24.2L26.1095 25.52C26.7815 27.08 28.7735 28.448 31.4375 28.448C35.7575 28.448 39.2135 24.656 39.2135 19.136C39.2135 13.88 36.0935 11 31.9895 11C28.2695 11 25.4375 13.448 25.4375 16.952C25.4375 20.792 28.5095 22.064 30.9095 22.064C32.4215 22.064 33.9335 21.56 35.1095 20.384H35.1575C34.9175 24.128 33.2855 25.568 31.5335 25.568ZM31.9895 19.256C30.1655 19.256 29.4215 18.176 29.4215 16.688C29.4215 15.2 30.2615 13.856 32.0375 13.856C33.7415 13.856 34.7735 15.104 35.0855 17.6C34.1735 18.776 33.1655 19.256 31.9895 19.256Z" fill="#FAFAFA"/>
</g>
<defs>
<clipPath id="clip0_1209_27046">
<rect width="67.93" height="40" fill="white" transform="translate(0.4375)"/>
</clipPath>
</defs>
</svg>
