<svg width="69" height="40" viewBox="0 0 69 40" fill="none" xmlns="http://www.w3.org/2000/svg">
<g clip-path="url(#clip0_1209_26882)">
<path d="M67.1084 23.54L52.4084 38.24C51.2784 39.37 49.7484 40 48.1584 40H12.3084C11.2484 40 10.2284 39.58 9.47844 38.83L1.81844 31.17C1.06844 30.42 0.648438 29.4 0.648438 28.34V6C0.648438 2.69 3.33844 0 6.64844 0H48.1584C49.7484 0 51.2784 0.63 52.4084 1.76L67.1084 16.46C69.0684 18.42 69.0684 21.58 67.1084 23.54Z" fill="#FAFAFA"/>
<path d="M12.6484 30V40H12.3084C11.2484 40 10.2284 39.58 9.47844 38.83L1.81844 31.17C1.06844 30.42 0.648438 29.4 0.648438 28.34V28H10.6484C11.7484 28 12.6484 28.9 12.6484 30V30Z" fill="#3F3F46"/>
<path d="M33.3284 13.88C34.3604 13.88 35.1284 14.456 35.7044 15.248L38.7524 13.928C38.0804 12.368 36.0884 11 33.4244 11C29.1044 11 25.6484 14.792 25.6484 20.312C25.6484 25.568 28.7684 28.448 32.8724 28.448C36.5924 28.448 39.4244 26 39.4244 22.496C39.4244 18.656 36.3524 17.384 33.9524 17.384C32.4404 17.384 30.9284 17.888 29.7524 19.064H29.7044C29.9444 15.32 31.5764 13.88 33.3284 13.88ZM32.8724 20.192C34.6964 20.192 35.4404 21.272 35.4404 22.76C35.4404 24.248 34.6004 25.592 32.8244 25.592C31.1204 25.592 30.0884 24.344 29.7764 21.848C30.6884 20.672 31.6964 20.192 32.8724 20.192Z" fill="#3F3F46"/>
</g>
<defs>
<clipPath id="clip0_1209_26882">
<rect width="67.93" height="40" fill="white" transform="translate(0.648438)"/>
</clipPath>
</defs>
</svg>
