<?xml version="1.0" encoding="UTF-8" standalone="no" ?>
<!DOCTYPE svg PUBLIC "-//W3C//DTD SVG 1.1//EN" "http://www.w3.org/Graphics/SVG/1.1/DTD/svg11.dtd">
<svg xmlns="http://www.w3.org/2000/svg" xmlns:xlink="http://www.w3.org/1999/xlink" version="1.1" width="24" height="24" viewBox="0 0 24 24" xml:space="preserve">
<desc>Created with Fabric.js 3.6.3</desc>
<defs>
</defs>
<g transform="matrix(1 0 0 1 12.5 12.5)"  >
<path style="stroke: none; stroke-width: 1; stroke-dasharray: none; stroke-linecap: butt; stroke-dashoffset: 0; stroke-linejoin: miter; stroke-miterlimit: 4; fill: rgb(255,255,255); fill-rule: evenodd; opacity: 1;"  transform=" translate(-12, -12)" d="M 12 22 C 6.47715 22 2 17.5228 2 12 C 2 6.47715 6.47715 2 12 2 C 17.5228 2 22 6.47715 22 12 C 22 17.5228 17.5228 22 12 22 Z M 12 4 C 7.58172 4 4 7.58172 4 12 C 4 16.4183 7.58172 20 12 20 C 16.4183 20 20 16.4183 20 12 C 20 7.58172 16.4183 4 12 4 Z M 12 10.75 C 12.6904 10.75 13.25 11.3096 13.25 12 V 16 C 13.25 16.6904 12.6904 17.25 12 17.25 C 11.3096 17.25 10.75 16.6904 10.75 16 V 12 C 10.75 11.3096 11.3096 10.75 12 10.75 Z M 12 7 C 11.3096 7 10.75 7.55964 10.75 8.25 C 10.75 8.94036 11.3096 9.5 12 9.5 C 12.6904 9.5 13.25 8.94036 13.25 8.25 C 13.25 7.55964 12.6904 7 12 7 Z" stroke-linecap="round" />
</g>
</svg>