<svg xmlns="http://www.w3.org/2000/svg" width="40" height="40" viewBox="0 0 40 40"><defs><style>.a,.d{fill:none;}.a{stroke:#292930;}.b{fill:#292930;}.c{stroke:none;}</style></defs><g transform="translate(0.437)"><g transform="translate(0)"><g class="a" transform="translate(-0.437)"><rect class="c" width="40" height="40" rx="6"/><rect class="d" x="0.5" y="0.5" width="39" height="39" rx="5.5"/></g></g><path class="b" d="M14.637,0H3.363A3.363,3.363,0,0,0,0,3.363V14.637A3.363,3.363,0,0,0,3.363,18H14.637A3.363,3.363,0,0,0,18,14.637V3.363A3.363,3.363,0,0,0,14.637,0ZM5.57,15.543a.474.474,0,0,1-.474.474H3.079a.474.474,0,0,1-.474-.474V7.087a.474.474,0,0,1,.474-.474H5.1a.474.474,0,0,1,.474.474ZM4.087,5.816A1.916,1.916,0,1,1,6,3.9,1.916,1.916,0,0,1,4.087,5.816Zm12.023,9.765a.435.435,0,0,1-.436.436H13.511a.436.436,0,0,1-.436-.436V11.615c0-.592.174-2.593-1.546-2.593-1.334,0-1.6,1.37-1.659,1.985v4.574a.436.436,0,0,1-.436.436H7.341a.436.436,0,0,1-.436-.436V7.049a.436.436,0,0,1,.436-.436H9.434a.436.436,0,0,1,.436.436v.738a2.971,2.971,0,0,1,2.8-1.315c3.465,0,3.446,3.238,3.446,5.017v4.092Z" transform="translate(10.515 11)"/></g></svg>