<svg xmlns="http://www.w3.org/2000/svg" width="40" height="40" viewBox="0 0 40 40"><defs><style>.a{fill:#292930;}.b{fill:#fffefe;fill-rule:evenodd;}</style></defs><rect class="a" width="40" height="40" rx="6"/><path class="b" d="M17761.971,397.511l-5.443,7.867-5.436-7.842a6.778,6.778,0,0,1-.174-5.742,5.92,5.92,0,0,1,11.225-.017A6.753,6.753,0,0,1,17761.971,397.511Zm2.041,1.136-6.119,9.278v0l-.172.119-.512.855a.751.751,0,0,1-1.359.007l-.508-.852v-.121l-6.123-9.246a9.675,9.675,0,0,1-.344-7.835c2.893-7.347,12.418-7.361,15.475-.027A10.376,10.376,0,0,1,17764.012,398.646Zm-6.291-4.473a1.189,1.189,0,0,1-1.193,1.211,1.225,1.225,0,0,1,0-2.414A1.182,1.182,0,0,1,17757.721,394.173Zm2.211-.005a3.536,3.536,0,0,1-3.4,3.632,3.629,3.629,0,0,1-3.4-3.615,3.409,3.409,0,1,1,6.8-.017Z" transform="translate(-17736.578 -377.335)"/></svg>