<svg xmlns="http://www.w3.org/2000/svg" width="40" height="40" viewBox="0 0 40 40"><defs><style>.a{fill:#fffefe;}.b{fill:#292930;fill-rule:evenodd;}</style></defs><g transform="translate(-30 -626)"><rect class="a" width="40" height="40" rx="6" transform="translate(30 626)"/><path class="b" d="M29849.068,387.021a1.031,1.031,0,0,0-1-.992.957.957,0,0,0-1.012.992v5.949h-6.043a.991.991,0,1,0,0,1.982h6.043v6.09a.957.957,0,0,0,1.012.992,1.031,1.031,0,0,0,1-.992v-6.09h5.926a.991.991,0,1,0,0-1.982h-5.926Z" transform="translate(-29798 252)"/></g></svg>