<svg xmlns="http://www.w3.org/2000/svg" width="100" height="102.4" viewBox="0 0 100 102.4"><defs><style>.a,.b,.c{fill:#fffefe;}.a{opacity:0.6;}.c{fill-rule:evenodd;}.d{fill:#fff;}</style></defs><g transform="translate(-1059 -476)"><g transform="translate(389 476)"><path class="a" d="M702,0a32.25,32.25,0,0,0-32,32.427V69.973a32,32,0,1,0,64,0V32.427A32.25,32.25,0,0,0,702,0Zm3.368,17.067v10.24a3.369,3.369,0,1,1-6.737,0V17.067a3.369,3.369,0,1,1,6.737,0Zm-32,15.36A28.863,28.863,0,0,1,700.316,3.5v6.982a6.811,6.811,0,0,0-5.053,6.584v10.24a6.811,6.811,0,0,0,5.053,6.584V40.96H673.368Zm57.263,37.547a28.634,28.634,0,1,1-57.263,0v-25.6h57.263Zm0-29.013H703.684V33.891a6.811,6.811,0,0,0,5.053-6.584V17.067a6.811,6.811,0,0,0-5.053-6.584V3.5a28.863,28.863,0,0,1,26.947,28.926Z" transform="translate(0)"/><path class="b" d="M806,67.413v10.24a3.369,3.369,0,1,0,6.737,0V67.413a3.369,3.369,0,1,0-6.737,0Z" transform="translate(-107.369 -50.347)"/></g><g transform="translate(151 48)"><path class="c" d="M2230.569,387.943a1.719,1.719,0,0,1,2.43,0l10.275,10.285a1.7,1.7,0,0,1,0,2.424L2233,410.939a1.716,1.716,0,1,1-2.43-2.424l9.085-9.075-9.085-9.073A1.74,1.74,0,0,1,2230.569,387.943Z" transform="translate(596.56 2697.783) rotate(-90)"/><path class="c" d="M.491,23.5a1.719,1.719,0,0,0,2.43,0L13.2,13.212a1.7,1.7,0,0,0,0-2.424L2.921.5A1.723,1.723,0,0,0,.491.5a1.741,1.741,0,0,0,0,2.424L9.576,12,.491,21.073A1.74,1.74,0,0,0,.491,23.5Z" transform="translate(1008 491.294) rotate(90)"/><rect class="d" width="4" height="49" rx="2" transform="translate(994 455)"/></g></g></svg>