<svg xmlns="http://www.w3.org/2000/svg" width="40" height="40" viewBox="0 0 40 40"><defs><style>.a{fill:#fffefe;}.b{fill:#292930;}</style></defs><g transform="translate(-1624 -120)"><rect class="a" width="40" height="40" rx="6" transform="translate(1624 120)"/><g transform="translate(-427.829 -449.527)"><path class="b" d="M2078.885,601.2h-15.367a3.442,3.442,0,0,1-3.438-3.437V582.4a3.442,3.442,0,0,1,3.438-3.439h8.274a1.068,1.068,0,1,1,0,2.136h-8.274a1.3,1.3,0,0,0-1.3,1.3v15.367a1.3,1.3,0,0,0,1.3,1.3h15.367a1.3,1.3,0,0,0,1.3-1.3v-8.395a1.068,1.068,0,1,1,2.136,0v8.395A3.442,3.442,0,0,1,2078.885,601.2Z" transform="translate(0 0.081)"/><path class="b" d="M2066.664,595.388a1.069,1.069,0,0,1-.994-1.461l2.314-5.867a1.086,1.086,0,0,1,.239-.363l8.472-8.473c2.163-2.164,4.293-1.567,5.464-.4a3.4,3.4,0,0,1,1.04,2.59,4.451,4.451,0,0,1-1.439,2.872l-8.473,8.473a1.084,1.084,0,0,1-.363.238l-5.867,2.314A1.068,1.068,0,0,1,2066.664,595.388Zm3.226-6.337-1.331,3.373,3.373-1.331,8.315-8.315a2.4,2.4,0,0,0,.817-1.471,1.26,1.26,0,0,0-.417-.971c-.848-.845-1.8-.251-2.443.4Z" transform="translate(0.377)"/></g></g></svg>