<svg xmlns="http://www.w3.org/2000/svg" width="24" height="24" viewBox="0 0 24 24"><defs><style>.a{fill:#292930;}</style></defs><g transform="translate(-11797.539 -4291.268)"><path class="a" d="M11810.895,4296.336a1.482,1.482,0,0,0-2.714,0l-2.98,6.545a.928.928,0,0,0,0,.766l2.98,6.545a1.482,1.482,0,0,0,2.714,0l2.974-6.545a.859.859,0,0,0,0-.766Zm-.857,12.61a.547.547,0,0,1-1.006,0l-2.483-5.456a.571.571,0,0,1-.04-.222h6.054a.5.5,0,0,1-.042.222Z"/><path class="a" d="M11809.539,4291.268a12,12,0,1,0,12,12A12.011,12.011,0,0,0,11809.539,4291.268Zm0,22.154a10.153,10.153,0,1,1,10.153-10.154A10.166,10.166,0,0,1,11809.539,4313.422Z"/></g></svg>