<?xml version="1.0" encoding="UTF-8" standalone="no" ?>
<!DOCTYPE svg PUBLIC "-//W3C//DTD SVG 1.1//EN" "http://www.w3.org/Graphics/SVG/1.1/DTD/svg11.dtd">
<svg xmlns="http://www.w3.org/2000/svg" xmlns:xlink="http://www.w3.org/1999/xlink" version="1.1" width="400" height="400" viewBox="0 0 400 400" xml:space="preserve">
<desc>Created with Fabric.js 3.6.3</desc>
<defs>
</defs>
<rect x="0" y="0" width="100%" height="100%" fill="rgba(255, 255, 255, 0)"></rect>
<g transform="matrix(1 0 0 1 128.5 200.5)"  >
<path style="stroke: none; stroke-width: 1; stroke-dasharray: none; stroke-linecap: butt; stroke-dashoffset: 0; stroke-linejoin: miter; stroke-miterlimit: 4; fill: rgb(255,255,255); fill-rule: nonzero; opacity: 1;"  transform=" translate(-184, -256)" d="M 208 432 H 160 a 16 16 0 0 1 -16 -16 V 96 a 16 16 0 0 1 16 -16 h 48 a 16 16 0 0 1 16 16 V 416 A 16 16 0 0 1 208 432 Z" stroke-linecap="round" />
</g>
<g transform="matrix(1 0 0 1 272.5 200.5)"  >
<path style="stroke: none; stroke-width: 1; stroke-dasharray: none; stroke-linecap: butt; stroke-dashoffset: 0; stroke-linejoin: miter; stroke-miterlimit: 4; fill: rgb(255,255,255); fill-rule: nonzero; opacity: 1;"  transform=" translate(-328, -256)" d="M 352 432 H 304 a 16 16 0 0 1 -16 -16 V 96 a 16 16 0 0 1 16 -16 h 48 a 16 16 0 0 1 16 16 V 416 A 16 16 0 0 1 352 432 Z" stroke-linecap="round" />
</g>
</svg>