<svg xmlns="http://www.w3.org/2000/svg" width="17.98" height="18" viewBox="0 0 17.98 18"><defs><style>.a{fill:#fffefe;fill-rule:evenodd;}</style></defs><path class="a" d="M14694.378,261.116H14707a2.74,2.74,0,0,1,2.678,2.7v12.6a2.739,2.739,0,0,1-2.678,2.7h-12.627a2.654,2.654,0,0,1-2.676-2.7v-12.6A2.655,2.655,0,0,1,14694.378,261.116Zm0,1.8a.886.886,0,0,0-.893.9v12.6a.886.886,0,0,0,.893.9H14707a.885.885,0,0,0,.891-.9v-12.6a.885.885,0,0,0-.891-.9Zm4.082,10.8a.886.886,0,0,1-.895-.9v-5.4a.894.894,0,1,1,1.787,0v5.4A.887.887,0,0,1,14698.46,273.717Zm3.568-.9a.894.894,0,1,0,1.787,0v-5.4a.894.894,0,1,0-1.787,0Z" transform="translate(-14691.702 -261.116)"/></svg>