<svg xmlns="http://www.w3.org/2000/svg" width="118.541" height="132.332" viewBox="0 0 118.541 132.332"><defs><style>.a,.b{fill:#fffefe;}.a{fill-rule:evenodd;}.b{opacity:0.6;}</style></defs><g transform="translate(1.465 0)"><path class="a" d="M909.121,116.469l1.747,12.44a1.627,1.627,0,0,0,1.825,1.4l.026,0,12.442-1.735a1.642,1.642,0,0,0-.451-3.253l-8.685,1.22,9.966-13.21a1.531,1.531,0,1,0-2.444-1.844l-9.965,13.208-1.209-8.683a1.664,1.664,0,0,0-1.854-1.4A1.643,1.643,0,0,0,909.121,116.469Z" transform="translate(-910.57 -79.925)"/><path class="a" d="M945.474,101.172l-1.747-12.441a1.627,1.627,0,0,0-1.825-1.4l-.026,0L929.433,89.07a1.647,1.647,0,0,0-1.4,1.856,1.665,1.665,0,0,0,1.851,1.4l8.685-1.22-9.966,13.21a1.53,1.53,0,1,0,2.444,1.843l9.965-13.208,1.209,8.683a1.665,1.665,0,0,0,1.854,1.4A1.644,1.644,0,0,0,945.474,101.172Z" transform="translate(-904.636 -87.316)"/><path class="b" d="M1013.548,217.774H969.5a2.1,2.1,0,0,1-2.1-2.1V200.866c-3.973-3.542-22.645-20.447-26.313-28.389-2.153-4.665-5.342-5.907-9.756-7.624a41.625,41.625,0,0,1-8.21-3.974c-2.03-1.336-5.664-4.892-4.891-8.788.64-3.227,3.986-5.445,9.945-6.6,9.99-1.93,14.611,1.273,19.5,4.662.47.326.946.656,1.437.988,1.616,1.094,5.824,3.677,8.765,5.469.315-12.46,1.336-52.883,1.336-55.611,0-4.318,3.927-9.338,8.989-9.338a9.7,9.7,0,0,1,9.508,9.636v21.284a8.866,8.866,0,0,1,4.861-2.312,8.537,8.537,0,0,1,6.842,1.557,10.765,10.765,0,0,1,3.455,5.857,7.734,7.734,0,0,1,1.963-1.557,8.618,8.618,0,0,1,6.684-.746,9.4,9.4,0,0,1,5.6,5.122,19.963,19.963,0,0,1,1.624,5.842,7.346,7.346,0,0,1,5.84-1.662c7.613.9,9.045,7.473,8.739,10.907l-.518,35.518a2.069,2.069,0,0,1-.113.649c-.511,1.5-4.828,14.047-7.034,17.967v15.944A2.1,2.1,0,0,1,1013.548,217.774Zm-41.946-4.2h39.844V199.143a2.106,2.106,0,0,1,.365-1.185c1.278-1.876,4.79-11.43,6.787-17.242l.514-35.266a1.628,1.628,0,0,1,.011-.179c.083-.95.238-5.782-5.044-6.408a3.133,3.133,0,0,0-2.672.736c-1.432,1.311-2,4.008-2.181,6.005-.022,1.059-.06,1.808-.076,2.078a2.1,2.1,0,0,1-2.1,1.98h-.025a2.1,2.1,0,0,1-2.074-2.032,19.639,19.639,0,0,1,.072-2.256c.055-3.774-.183-10.007-1.671-12.986a5.373,5.373,0,0,0-3.082-2.986,4.441,4.441,0,0,0-3.4.4c-2.4,1.335-2.838,5.713-2.793,8.32.053.821.084,1.412.088,1.481a2.1,2.1,0,0,1-4.188.349c-.026-.24-.093-.908-.113-1.831-.1-1.611-.256-3.675-.4-4.58-.034-.214-.063-.541-.1-.958-.141-1.735-.473-5.8-2.57-7.459a4.461,4.461,0,0,0-3.6-.7c-4.193.635-5.258,6.072-5.489,9.789V137.9a2.1,2.1,0,0,1-4.2.19,29.82,29.82,0,0,1-.008-4.347V101.3a5.512,5.512,0,0,0-5.3-5.432c-2.465,0-4.785,2.893-4.785,5.134,0,3.263-1.372,57.053-1.429,59.342a2.1,2.1,0,0,1-3.187,1.746c-.382-.23-9.375-5.656-12.047-7.466-.5-.34-.992-.679-1.474-1.013-4.677-3.241-8.056-5.579-16.307-3.99-5.757,1.11-6.521,2.8-6.619,3.287-.275,1.383,1.646,3.514,3.079,4.458a37.645,37.645,0,0,0,7.423,3.568c4.723,1.838,9.183,3.575,12.048,9.779,3.028,6.562,19.785,22.168,25.986,27.628a2.1,2.1,0,0,1,.712,1.578Z" transform="translate(-906.275 -85.442)"/><path class="a" d="M974.1,101.3a14.3,14.3,0,0,1-4.94,10.838v-9.354a9.7,9.7,0,0,0-9.5-9.63c-5.071,0-9,5.018-9,9.341,0,.762-.079,4.519-.2,9.8a14.374,14.374,0,1,1,23.634-11Z" transform="translate(-897.735 -86.929)"/><path class="a" d="M919.521,140.778c-.775,3.9,2.864,7.449,4.887,8.789a41.548,41.548,0,0,0,8.211,3.981c.985.381,1.918.749,2.785,1.117a14.382,14.382,0,1,1,5.1-20.337,23.124,23.124,0,0,0-11.035-.144C923.5,135.339,920.164,137.559,919.521,140.778Z" transform="translate(-907.564 -74.131)"/></g></svg>