<svg width="40" height="40" viewBox="0 0 40 40" fill="none" xmlns="http://www.w3.org/2000/svg">
<path d="M0 6C0 2.68629 2.68629 0 6 0H34C37.3137 0 40 2.68629 40 6V34C40 37.3137 37.3137 40 34 40H6C2.68629 40 0 37.3137 0 34V6Z" fill="#FAFAFA"/>
<path d="M16.75 27.0423C16.319 27.0423 15.9057 26.8711 15.601 26.5664C15.2962 26.2616 15.125 25.8483 15.125 25.4173V14.584C15.125 14.153 15.2962 13.7397 15.601 13.4349C15.9057 13.1302 16.319 12.959 16.75 12.959C17.181 12.959 17.5943 13.1302 17.899 13.4349C18.2038 13.7397 18.375 14.153 18.375 14.584V25.4173C18.375 25.8483 18.2038 26.2616 17.899 26.5664C17.5943 26.8711 17.181 27.0423 16.75 27.0423Z" fill="#3F3F46"/>
<path d="M23.25 27.0423C22.819 27.0423 22.4057 26.8711 22.101 26.5664C21.7962 26.2616 21.625 25.8483 21.625 25.4173V14.584C21.625 14.153 21.7962 13.7397 22.101 13.4349C22.4057 13.1302 22.819 12.959 23.25 12.959C23.681 12.959 24.0943 13.1302 24.399 13.4349C24.7038 13.7397 24.875 14.153 24.875 14.584V25.4173C24.875 25.8483 24.7038 26.2616 24.399 26.5664C24.0943 26.8711 23.681 27.0423 23.25 27.0423Z" fill="#3F3F46"/>
</svg>
