<svg xmlns="http://www.w3.org/2000/svg" width="72" height="14.724" viewBox="0 0 72 14.724"><defs><style>.a{opacity:0.6;}.b{fill:#fffefe;}</style></defs><g class="a" transform="translate(-11.14 -8.866)"><path class="b" d="M15.956,22.958,11.252,10a1.33,1.33,0,0,1-.112-.428.7.7,0,0,1,.7-.7.757.757,0,0,1,.7.6l4.206,12.169L20.954,9.415a.7.7,0,0,1,.7-.547h.056a.7.7,0,0,1,.7.54l4.15,12.232L30.768,9.422a.71.71,0,0,1,1.4.147,1.332,1.332,0,0,1-.112.477L27.333,22.972a.827.827,0,0,1-.771.617h-.049a.8.8,0,0,1-.764-.652l-4.094-11.77L17.533,22.93a.8.8,0,0,1-.785.659h0A.827.827,0,0,1,15.956,22.958Z" transform="translate(0 0)"/><path class="b" d="M88.706,22.958,84,10a1.33,1.33,0,0,1-.112-.428.7.7,0,0,1,.7-.7.757.757,0,0,1,.7.6l4.164,12.169L93.662,9.415a.7.7,0,0,1,.7-.533h.056a.7.7,0,0,1,.7.54l4.164,12.225L103.49,9.429a.714.714,0,0,1,1.4.119,1.331,1.331,0,0,1-.112.477l-4.7,12.948a.826.826,0,0,1-.764.617h-.056a.8.8,0,0,1-.764-.652l-4.08-11.77-4.136,11.77a.8.8,0,0,1-.764.645h-.056A.827.827,0,0,1,88.706,22.958Z" transform="translate(-21.752 -0.001)"/><path class="b" d="M63.065,8.867a7.368,7.368,0,0,0-6.442,3.8,7.36,7.36,0,1,0,0,7.122A7.361,7.361,0,1,0,63.065,8.867Zm-12.877,10.6a3.239,3.239,0,1,1,3.239-3.239h0A3.245,3.245,0,0,1,50.187,19.467Zm12.877,0A3.239,3.239,0,1,1,66.3,16.228,3.239,3.239,0,0,1,63.065,19.467Z" transform="translate(-9.472)"/></g></svg>