<svg xmlns="http://www.w3.org/2000/svg" width="16" height="12.803" viewBox="0 0 16 12.803"><defs><style>.a{fill:#fffefe;fill-rule:evenodd;}</style></defs><path class="a" d="M3871.164,262.528a2.4,2.4,0,0,0-2.4,2.4v8a2.4,2.4,0,0,0,2.4,2.4h11.2a2.4,2.4,0,0,0,2.393-2.4v-8a2.4,2.4,0,0,0-2.393-2.4Zm-.737,2.066a.82.82,0,0,1,.737-.466h11.2a.816.816,0,0,1,.726.466l-5.84,4.54a.807.807,0,0,1-.987,0Zm-.068,1.971v4.658l2.892-2.41Zm.068,6.686a.8.8,0,0,0,.737.481h11.2a.8.8,0,0,0,.726-.481l-4.116-3.431-.737.578a2.4,2.4,0,0,1-2.948,0l-.749-.578Zm12.734-2.027v-4.658l-2.892,2.249Z" transform="translate(-3868.76 -262.528)"/></svg>