<svg xmlns="http://www.w3.org/2000/svg" width="15.244" height="16" viewBox="0 0 15.244 16"><defs><style>.a{fill:#292930;fill-rule:evenodd;}</style></defs><path class="a" d="M21969.357,323.22a.86.86,0,0,0-.793.58l-.566,2.129-2.154-.3a.724.724,0,0,0-.793.477l-1.246,2.8a.86.86,0,0,0,.225.881l1.359,1.434-1.359,1.434a.771.771,0,0,0-.111.962l1.586,2.8a.711.711,0,0,0,.793.391l1.7-.282.566,2.113a.86.86,0,0,0,.793.58h3.967a.762.762,0,0,0,.795-.58l.68-2.113,1.7.282a.886.886,0,0,0,.793-.391l1.588-2.8a.774.774,0,0,0-.113-.962l-1.475-1.434,1.475-1.434a.832.832,0,0,0,.113-.881l-1.135-2.8a.958.958,0,0,0-.9-.477l-2.043.3-.68-2.129a.762.762,0,0,0-.795-.58Zm0,3.819.566-2.22h2.834l.682,2.22a.793.793,0,0,0,.906.572l2.154-.313.68,1.739-1.588,1.617a.758.758,0,0,0,0,1.131l1.588,1.568-1.021,1.785-1.812-.308a.778.778,0,0,0-.906.57l-.682,2.22h-2.834l-.566-2.22a.846.846,0,0,0-.906-.57l-1.812.308-1.021-1.785,1.473-1.568a.752.752,0,0,0,0-1.131l-1.586-1.617.793-1.739,2.154.313A.792.792,0,0,0,21969.357,327.039Zm2.041,5.78a1.6,1.6,0,1,1,1.588-1.6A1.574,1.574,0,0,1,21971.4,332.819Zm-3.176-1.6a3.151,3.151,0,0,1,3.176-3.2,3.2,3.2,0,0,1,0,6.4A3.151,3.151,0,0,1,21968.223,331.22Z" transform="translate(-21963.76 -323.22)"/></svg>