<svg xmlns="http://www.w3.org/2000/svg" width="40" height="40" viewBox="0 0 40 40"><defs><style>.a{fill:#292930;}.b{fill:#fffefe;fill-rule:evenodd;}</style></defs><rect class="a" width="40" height="40" rx="6"/><path class="b" d="M11342.894,451.5a3.178,3.178,0,0,0-4.49,0l-1.5,1.494a1.059,1.059,0,0,1-1.5,0,1,1,0,0,1,0-1.494l1.5-1.494a5.3,5.3,0,0,1,7.484,0,5.509,5.509,0,0,1,0,7.469l-1.5,1.494a1.054,1.054,0,0,1-1.5,0,.993.993,0,0,1,0-1.494l1.5-1.494A3.244,3.244,0,0,0,11342.894,451.5Zm-11.975,11.95a2.989,2.989,0,0,1,0-4.481l1.5-1.494a1.364,1.364,0,0,0,0-1.494,1.057,1.057,0,0,0-1.5,0l-1.5,1.494a5.222,5.222,0,0,0,0,7.469,5.3,5.3,0,0,0,7.484,0l1.5-1.494a1.357,1.357,0,0,0,0-1.494,1.054,1.054,0,0,0-1.5,0l-1.5,1.494A3.178,3.178,0,0,1,11330.919,463.451Zm9.73-8.216a1.364,1.364,0,0,0,0-1.494,1.057,1.057,0,0,0-1.5,0l-5.986,5.975a.993.993,0,0,0,0,1.494,1.054,1.054,0,0,0,1.5,0Z" transform="translate(-11316.852 -437.46)"/></svg>