<svg xmlns="http://www.w3.org/2000/svg" width="50" height="50" viewBox="0 0 50 50"><defs><style>.a{fill:none;opacity:0.6;}.b,.c{stroke:none;}.c{fill:#fffefe;}</style></defs><g class="a" transform="translate(50 50) rotate(180)"><path class="b" d="M10,0H40A10,10,0,0,1,50,10V40A10,10,0,0,1,40,50H10A10,10,0,0,1,0,40V10A10,10,0,0,1,10,0Z"/><path class="c" d="M 10 1 C 5.037380218505859 1 1 5.037380218505859 1 10 L 1 40 C 1 44.96261978149414 5.037380218505859 49 10 49 L 40 49 C 44.96261978149414 49 49 44.96261978149414 49 40 L 49 10 C 49 5.037380218505859 44.96261978149414 1 40 1 L 10 1 M 10 0 L 40 0 C 45.52285003662109 0 50 4.477149963378906 50 10 L 50 40 C 50 45.52285003662109 45.52285003662109 50 40 50 L 10 50 C 4.477149963378906 50 0 45.52285003662109 0 40 L 0 10 C 0 4.477149963378906 4.477149963378906 0 10 0 Z"/></g></svg>