<svg xmlns="http://www.w3.org/2000/svg" width="40" height="40" viewBox="0 0 40 40"><defs><style>.a{fill:#292930;}.b{fill:#fffefe;fill-rule:evenodd;}</style></defs><g transform="translate(-1053 -538)"><rect class="a" width="40" height="40" rx="6" transform="translate(1053 538)"/><path class="b" d="M30350.527,889.358a3.843,3.843,0,0,1-2.043-.6l-4.98,2.417,4.852,2.5a3.523,3.523,0,0,1,2.172-.712,3.6,3.6,0,0,1,0,7.208,3.549,3.549,0,0,1-3.578-3.6,2.781,2.781,0,0,1,.258-1.455l-4.34-2.242a3.615,3.615,0,1,1,0-3.393l4.34-2.123a6.177,6.177,0,0,1-.258-1.6,3.549,3.549,0,0,1,3.578-3.6,3.6,3.6,0,0,1,0,7.208Zm0-5.405a1.8,1.8,0,1,0,1.785,1.8A1.773,1.773,0,0,0,30350.527,883.953Zm-10.852,5.405a1.8,1.8,0,1,0,1.785,1.8A1.773,1.773,0,0,0,30339.676,889.358Zm9.063,7.208a1.787,1.787,0,1,1,1.789,1.8A1.773,1.773,0,0,1,30348.738,896.566Z" transform="translate(-29272.098 -333.15)"/></g></svg>