<svg xmlns="http://www.w3.org/2000/svg" width="14.072" height="14" viewBox="0 0 14.072 14"><defs><style>.a{fill:#292930;fill-rule:evenodd;}</style></defs><path class="a" d="M14829.83,324.888a.876.876,0,0,1,1.239,0,.825.825,0,0,1,0,1.237l-1.486,1.494v9.261a1.72,1.72,0,0,1-.994,1.544,1.648,1.648,0,0,1-1.735-.087l-3.471-2.331h-2.232l-2.354,2.368a.879.879,0,0,1-1.241,0,.827.827,0,0,1,0-1.237Zm-6.943,9.368h.745a.978.978,0,0,1,.5.147l1.982,1.31,1.736,1.167v-7.512Zm3.967-9.331a1.844,1.844,0,0,1,.744-.283l-4.34,4.364h-3.345v3.313l-1.735,1.749v-5.062a1.72,1.72,0,0,1,1.735-1.751h3.47Z" transform="translate(-14817.276 -324.631)"/></svg>