<svg xmlns="http://www.w3.org/2000/svg" width="133.755" height="135.491" viewBox="0 0 133.755 135.491"><defs><style>.a,.b{fill:#fffefe;}.a{fill-rule:evenodd;}.b{opacity:0.6;}</style></defs><g transform="translate(0 0)"><path class="a" d="M1025.6,124.216l8.887,8.88a1.627,1.627,0,0,0,2.3.018l.02-.018,8.887-8.88a1.648,1.648,0,0,0,0-2.325,1.666,1.666,0,0,0-2.32,0l-6.2,6.206V111.549a1.53,1.53,0,1,0-3.061,0v16.545l-6.193-6.2a1.667,1.667,0,0,0-2.323,0A1.644,1.644,0,0,0,1025.6,124.216Z" transform="translate(-1007.121 -76.526)"/><path class="a" d="M1045.7,93.89l-8.889-8.88a1.627,1.627,0,0,0-2.3-.018l-.018.018-8.888,8.88a1.642,1.642,0,0,0,2.319,2.325l6.2-6.206v16.548a1.53,1.53,0,1,0,3.061,0V90.011l6.194,6.2a1.667,1.667,0,0,0,2.323,0A1.646,1.646,0,0,0,1045.7,93.89Z" transform="translate(-1007.12 -84.524)"/><path class="a" d="M1020.784,98.707l-8.88,8.887a1.627,1.627,0,0,0-.018,2.3l.018.018,8.88,8.887a1.642,1.642,0,0,0,2.325-2.319l-6.2-6.2h16.547a1.531,1.531,0,1,0,0-3.061h-16.545l6.2-6.194a1.663,1.663,0,0,0,0-2.321A1.644,1.644,0,0,0,1020.784,98.707Z" transform="translate(-1011.419 -80.226)"/><path class="a" d="M1051.111,118.8l8.88-8.887a1.627,1.627,0,0,0,.02-2.3l-.02-.018-8.88-8.889a1.649,1.649,0,0,0-2.324,0,1.666,1.666,0,0,0,0,2.32l6.2,6.2h-16.548a1.531,1.531,0,1,0,0,3.061h16.545l-6.2,6.194a1.663,1.663,0,0,0,0,2.321A1.642,1.642,0,0,0,1051.111,118.8Z" transform="translate(-1003.421 -80.225)"/><path class="b" d="M1128.559,217.774H1084.51a2.1,2.1,0,0,1-2.1-2.1V200.866c-3.973-3.542-22.646-20.447-26.314-28.389-2.152-4.665-5.34-5.907-9.755-7.624a41.62,41.62,0,0,1-8.209-3.974c-2.03-1.336-5.664-4.892-4.891-8.788.64-3.227,3.986-5.445,9.945-6.6,9.99-1.93,14.61,1.273,19.5,4.662.469.326.946.656,1.437.988,1.616,1.094,5.822,3.677,8.765,5.469.315-12.46,1.336-52.883,1.336-55.611,0-4.318,3.926-9.338,8.989-9.338a9.7,9.7,0,0,1,9.506,9.636v21.284a8.875,8.875,0,0,1,4.861-2.312,8.535,8.535,0,0,1,6.842,1.557,10.757,10.757,0,0,1,3.455,5.857,7.714,7.714,0,0,1,1.964-1.557,8.616,8.616,0,0,1,6.683-.746,9.4,9.4,0,0,1,5.6,5.122,19.963,19.963,0,0,1,1.623,5.842,7.35,7.35,0,0,1,5.841-1.662c7.613.9,9.045,7.473,8.739,10.907l-.518,35.518a2.115,2.115,0,0,1-.113.649c-.511,1.5-4.828,14.047-7.034,17.967v15.944A2.1,2.1,0,0,1,1128.559,217.774Zm-41.946-4.2h39.844V199.143a2.114,2.114,0,0,1,.364-1.185c1.28-1.876,4.791-11.43,6.787-17.242l.515-35.266a1.707,1.707,0,0,1,.01-.179c.083-.95.237-5.782-5.043-6.408a3.132,3.132,0,0,0-2.672.736c-1.432,1.311-2,4.008-2.181,6.005-.022,1.059-.061,1.808-.076,2.078a2.1,2.1,0,0,1-2.1,1.98h-.025a2.1,2.1,0,0,1-2.074-2.032,19.865,19.865,0,0,1,.071-2.256c.056-3.774-.181-10.007-1.67-12.986a5.38,5.38,0,0,0-3.082-2.986,4.441,4.441,0,0,0-3.4.4c-2.4,1.335-2.838,5.713-2.793,8.32.051.821.084,1.412.088,1.481a2.1,2.1,0,0,1-4.188.349c-.026-.24-.093-.908-.113-1.831-.1-1.611-.256-3.675-.4-4.58-.033-.214-.062-.541-.1-.958-.141-1.735-.473-5.8-2.57-7.459a4.462,4.462,0,0,0-3.6-.7c-4.194.635-5.258,6.072-5.49,9.789V137.9a2.1,2.1,0,0,1-4.195.19,29.564,29.564,0,0,1-.008-4.347V101.3a5.512,5.512,0,0,0-5.3-5.432c-2.465,0-4.786,2.893-4.786,5.134,0,3.263-1.371,57.053-1.429,59.342a2.1,2.1,0,0,1-3.186,1.746c-.382-.23-9.375-5.656-12.047-7.466-.5-.34-.992-.679-1.474-1.013-4.677-3.241-8.056-5.579-16.308-3.99-5.757,1.11-6.521,2.8-6.619,3.287-.275,1.383,1.645,3.514,3.078,4.458a37.683,37.683,0,0,0,7.424,3.568c4.721,1.838,9.183,3.575,12.048,9.779,3.028,6.562,19.785,22.168,25.986,27.628a2.1,2.1,0,0,1,.712,1.578Z" transform="translate(-1004.606 -82.283)"/><path class="a" d="M1089.115,101.3a14.3,14.3,0,0,1-4.94,10.838v-9.354a9.7,9.7,0,0,0-9.5-9.63c-5.071,0-9,5.018-9,9.341,0,.762-.079,4.519-.2,9.8a14.374,14.374,0,1,1,23.634-11Z" transform="translate(-996.065 -83.77)"/></g></svg>