<svg xmlns="http://www.w3.org/2000/svg" width="40" height="40" viewBox="0 0 40 40"><defs><style>.a,.d{fill:none;}.a{stroke:#292930;}.b{fill:#292930;}.c{stroke:none;}</style></defs><g transform="translate(0.055)"><g transform="translate(0)"><g class="a" transform="translate(-0.055)"><rect class="c" width="40" height="40" rx="6"/><rect class="d" x="0.5" y="0.5" width="39" height="39" rx="5.5"/></g></g><path class="b" d="M14.613,0H3.387A3.387,3.387,0,0,0,0,3.387V14.613A3.387,3.387,0,0,0,3.387,18H14.613A3.387,3.387,0,0,0,18,14.613V3.387A3.387,3.387,0,0,0,14.613,0Zm-1.5,7.017c0,.089.006.178.006.267a5.838,5.838,0,0,1-5.878,5.878h0a5.844,5.844,0,0,1-3.167-.928,4.176,4.176,0,0,0,3.059-.856A2.068,2.068,0,0,1,5.2,9.943a2.028,2.028,0,0,0,.388.038,2.079,2.079,0,0,0,.545-.073A2.067,2.067,0,0,1,4.476,7.883V7.857a2.051,2.051,0,0,0,.936.258,2.068,2.068,0,0,1-.64-2.758A5.863,5.863,0,0,0,9.03,7.515a2.067,2.067,0,0,1,3.52-1.884,4.149,4.149,0,0,0,1.312-.5,2.073,2.073,0,0,1-.908,1.142,4.108,4.108,0,0,0,1.186-.325A4.194,4.194,0,0,1,13.109,7.017Z" transform="translate(10.945 11)"/></g></svg>