<svg id="Guide_play_black" xmlns="http://www.w3.org/2000/svg" xmlns:xlink="http://www.w3.org/1999/xlink" width="40" height="40" viewBox="0 0 40 40">
  <defs>
    <clipPath id="clip-path">
      <rect id="Rectangle_535" data-name="Rectangle 535" width="19.5" height="21.465" transform="translate(9.167 9.166)" fill="#fff"/>
    </clipPath>
  </defs>
  <path id="Path_2194" data-name="Path 2194" d="M0,6A6,6,0,0,1,6,0H34a6,6,0,0,1,6,6V34a6,6,0,0,1-6,6H6a6,6,0,0,1-6-6Z" fill="#292930"/>
  <g id="Group_1957" data-name="Group 1957" clip-path="url(#clip-path)">
    <path id="Path_2195" data-name="Path 2195" d="M28.464,23.735a.962.962,0,0,0-.932-.762l-.2.015a.989.989,0,0,0-.606.419.919.919,0,0,0-.125.73,7.283,7.283,0,0,1,.14,1.46v3.123H25.96V25.007a.955.955,0,0,0-.947-.963.968.968,0,0,0-.963.963v3.712H17.356V25.007a2.3,2.3,0,0,0-.839-2.1l-3.635-3.588.684-.792,1.088,1.056.031.078.264.264a2.589,2.589,0,0,0,2.159.948h.823a2.751,2.751,0,0,0,5.5.047,3.494,3.494,0,0,1,2.453,1.491.96.96,0,0,0,1.724-.388.98.98,0,0,0-.155-.715,5.407,5.407,0,0,0-3.216-2.174,4.73,4.73,0,0,0,1.2-2.889V13.283a4.234,4.234,0,0,0-3.153-3.821,4.986,4.986,0,0,0-1.693-.3,3.475,3.475,0,0,0-2.469.885c-.9.2-2.221.978-2.174,3.743v2.453A4.578,4.578,0,0,0,17,18.966c-.3,0-.341-.047-.7-.409l-2.9-2.889a2.54,2.54,0,0,0-1.848-.838,1.871,1.871,0,0,0-.59.078,2.484,2.484,0,0,0-1.022,4.178l5.234,5.187c.279.264.279.264.279.73v3.8a1.825,1.825,0,0,0,1.823,1.823h9.57A1.825,1.825,0,0,0,28.663,28.8V25.595A9.025,9.025,0,0,0,28.464,23.735Zm-7.781-2.081a.9.9,0,0,1-.808-.73,3.112,3.112,0,0,0,1.635,0,.92.92,0,0,1-.828.73Zm-2.827-7.87c-.015-1.2.264-1.833.823-1.88a1.076,1.076,0,0,0,.684-.373,1.511,1.511,0,0,1,1.211-.451,3.5,3.5,0,0,1,1.1.186c.854.3,1.848.994,1.848,2.019v.792a2.6,2.6,0,0,1-.684-.528,3.7,3.7,0,0,0-2.64-1.227h-.6a1.533,1.533,0,0,0-1.444.792,2.579,2.579,0,0,0-.264,1.056c-.015.093-.031.233-.031.233Zm.062,2.547a1.691,1.691,0,0,0,1.569-.823,2.61,2.61,0,0,0,.307-1.15v-.125H20.2a1.807,1.807,0,0,1,1.321.715,3.475,3.475,0,0,0,2,1.088v.218a3.578,3.578,0,0,1-2.221,2.733,1.749,1.749,0,0,1-.621.14,1.677,1.677,0,0,1-.606-.14,3.6,3.6,0,0,1-2.221-2.657Zm-6.4,1.647-.248-.248a.533.533,0,0,1-.171-.559.558.558,0,0,1,.358-.409.2.2,0,0,1,.093-.015.748.748,0,0,1,.5.28l.171.155Z" fill="#fafafa"/>
  </g>
</svg>
