<svg xmlns="http://www.w3.org/2000/svg" width="40" height="40" viewBox="0 0 40 40"><defs><style>.a{fill:#292930;}.b{fill:#fffefe;}</style></defs><g transform="translate(-1053 -682)"><rect class="a" width="40" height="40" rx="6" transform="translate(1053 682)"/><path class="b" d="M437.17,1304.21v-.17a.569.569,0,0,0-.01-.13,2.549,2.549,0,0,0-2.69-2.16h-12a2.536,2.536,0,0,0-2.69,2.17.486.486,0,0,0-.01.12v.18a2.606,2.606,0,0,0-2.3,2.59v7.77a2.612,2.612,0,0,0,2.61,2.61h5.98a1.412,1.412,0,0,0,1.25-.72l.95-1.58h.42l.94,1.56a1.45,1.45,0,0,0,1.27.74h5.98a2.6,2.6,0,0,0,2.6-2.6v-7.78A2.624,2.624,0,0,0,437.17,1304.21Zm-10.53,6.17a2.995,2.995,0,1,1,0-.01Zm-5.47-6.18v-.16a.674.674,0,0,1,.02-.14,1.272,1.272,0,0,1,1.28-.75h12a1.272,1.272,0,0,1,1.28.75.674.674,0,0,1,.02.14v.16Zm14.25,8.3a3.04,3.04,0,0,1-2.12.88,3,3,0,1,1,2.12-.88Z" transform="translate(644.53 -607.744)"/></g></svg>