<svg xmlns="http://www.w3.org/2000/svg" xmlns:xlink="http://www.w3.org/1999/xlink" width="70" height="70" viewBox="0 0 70 70"><defs><style>.a{fill:#fff;}.b{fill:#292930;fill-rule:evenodd;}.c{filter:url(#a);}</style><filter id="a" x="0" y="0" width="70" height="70" filterUnits="userSpaceOnUse"><feOffset dy="4" input="SourceAlpha"/><feGaussianBlur stdDeviation="5" result="b"/><feFlood flood-color="#292930" flood-opacity="0.149"/><feComposite operator="in" in2="b"/><feComposite in="SourceGraphic"/></filter></defs><g transform="translate(-1417 -937)"><g class="c" transform="matrix(1, 0, 0, 1, 1417, 937)"><rect class="a" width="40" height="40" rx="6" transform="translate(15 11)"/></g><path class="b" d="M17817.148,341.22a9,9,0,1,1,9.057-9A9.045,9.045,0,0,1,17817.148,341.22Zm0-16.2c-.127,0-.381.006-.508.018,0,.038,0,.082-.131.129-.125.3-.506.76-.764,1.381a7.688,7.688,0,0,0-.891,2.072h4.59a7.75,7.75,0,0,0-.893-2.072c-.256-.621-.637-1.082-.768-1.381-.127-.047-.127-.091-.127-.129C17817.533,325.026,17817.277,325.02,17817.148,325.02Zm-4.465,7.2v-1.8h-2.549a12.817,12.817,0,0,0,0,3.6h2.549Zm.385,3.6h-2.166a7.724,7.724,0,0,0,3.188,2.936V338.7A12.474,12.474,0,0,1,17813.068,335.82Zm1.787,0h4.59a7.753,7.753,0,0,1-.893,2.072c-.256.621-.637,1.081-.768,1.381-.127.047-.127.091-.127.129-.125.011-.381.018-.51.018s-.381-.006-.508-.018c0-.038,0-.082-.131-.129-.125-.3-.506-.76-.764-1.381A7.691,7.691,0,0,1,17814.855,335.82Zm4.844-1.8h-5.1a13.015,13.015,0,0,1,0-3.6h5.1a12.438,12.438,0,0,1,0,3.6Zm1.531,1.8a12.384,12.384,0,0,1-1.021,2.877v.059a7.74,7.74,0,0,0,3.189-2.936Zm2.932-1.8h-2.551v-3.6h2.551a12.625,12.625,0,0,1,0,3.6Zm-10.072-8.277a12.474,12.474,0,0,0-1.021,2.877h-2.166a7.712,7.712,0,0,1,3.188-2.935Zm6.119-.057a7.729,7.729,0,0,1,3.189,2.935h-2.168a12.384,12.384,0,0,0-1.021-2.877Z" transform="translate(-16365.094 635.78)"/></g></svg>