<svg width="10" height="14" viewBox="0 0 10 14" fill="none" xmlns="http://www.w3.org/2000/svg">
<path d="M1 14C0.843458 13.999 0.689322 13.9614 0.55 13.89C0.385086 13.8069 0.246403 13.6797 0.149323 13.5226C0.052244 13.3656 0.000559705 13.1847 0 13V0.999984C0.000559705 0.815316 0.052244 0.63441 0.149323 0.477318C0.246403 0.320226 0.385086 0.193084 0.55 0.109984C0.70982 0.0354892 0.886495 0.00457765 1.06211 0.0203833C1.23773 0.036189 1.40605 0.0981496 1.55 0.199984L9.55 6.19998C9.6742 6.29313 9.775 6.41392 9.84443 6.55277C9.91385 6.69163 9.95 6.84474 9.95 6.99998C9.95 7.15523 9.91385 7.30834 9.84443 7.4472C9.775 7.58605 9.6742 7.70684 9.55 7.79998L1.55 13.8C1.39071 13.92 1.19918 13.9897 1 14ZM2 2.99998V11L7.33 6.99998L2 2.99998Z" fill="#3F3F46"/>
</svg>
