<svg id="Layer_1" data-name="Layer 1" xmlns="http://www.w3.org/2000/svg" width="92.96" height="19" viewBox="0 0 92.96 19"><defs><style>.cls-1{fill:#231f20;}</style></defs><title>woow-logo-black-mobile</title><path class="cls-1" d="M6.21,18.19L0.15,1.46A1.72,1.72,0,0,1,0,.87,0.93,0.93,0,0,1,.95,0a1,1,0,0,1,.95.77L7.27,16.47,12.68,0.7A0.9,0.9,0,0,1,13.55,0h0.07a0.91,0.91,0,0,1,.91.69l5.38,15.78L25.36,0.72A0.87,0.87,0,0,1,26.23,0a0.89,0.89,0,0,1,.91.84,1.72,1.72,0,0,1-.15.62L20.9,18.2a1.06,1.06,0,0,1-1,.8H19.84a1,1,0,0,1-1-.84L13.59,3,8.25,18.15a1,1,0,0,1-1,.84H7.2A1.06,1.06,0,0,1,6.21,18.19Z"/><path class="cls-1" d="M72,18.19L66,1.46A1.71,1.71,0,0,1,65.82.87,0.93,0.93,0,0,1,66.77,0a1,1,0,0,1,.95.77l5.38,15.71L78.5,0.7A0.9,0.9,0,0,1,79.38,0h0.07a0.91,0.91,0,0,1,.91.69l5.38,15.78L91.18,0.72A0.87,0.87,0,0,1,92.05,0,0.89,0.89,0,0,1,93,.86a1.73,1.73,0,0,1-.15.62L86.72,18.2a1.06,1.06,0,0,1-1,.8H85.66a1,1,0,0,1-1-.84L79.41,3,74.07,18.15a1,1,0,0,1-1,.84H73A1.06,1.06,0,0,1,72,18.19Z"/><path d="M54.79,0a9.51,9.51,0,0,0-8.31,4.9,9.5,9.5,0,1,0,0,9.19A9.5,9.5,0,1,0,54.79,0ZM38.17,13.68A4.18,4.18,0,1,1,42.35,9.5,4.19,4.19,0,0,1,38.17,13.68Zm16.62,0A4.18,4.18,0,1,1,59,9.5,4.19,4.19,0,0,1,54.79,13.68Z"/></svg>