<svg xmlns="http://www.w3.org/2000/svg" width="40" height="40" viewBox="0 0 40 40"><defs><style>.a{fill:#fffefe;}.b{fill:#292930;fill-rule:evenodd;}</style></defs><g transform="translate(-1316 -647)"><rect class="a" width="40" height="40" rx="6" transform="translate(1316 647)"/><path class="b" d="M29981.477,578.378a6.771,6.771,0,0,1-6.75,6.745,6.992,6.992,0,0,1-4.207-1.415.239.239,0,0,1-.129.252l-5.359,5.4a.9.9,0,0,1-1.271,0,.854.854,0,0,1,0-1.272l5.357-5.4c.129-.075.129-.135.25-.177a6.692,6.692,0,0,1-1.4-4.134,6.754,6.754,0,0,1,13.508,0Zm-1.783,0a5,5,0,0,0-4.967-4.946,4.946,4.946,0,1,0,0,9.893A5,5,0,0,0,29979.693,578.378Zm-4.08-2.248a.893.893,0,1,0-1.785,0v1.35h-1.4a.9.9,0,0,0,0,1.8h1.4v1.349a.893.893,0,1,0,1.785,0v-1.349h1.4a.9.9,0,0,0,0-1.8h-1.4Z" transform="translate(-28636.477 86.367)"/></g></svg>