<svg xmlns="http://www.w3.org/2000/svg" width="40" height="40" viewBox="0 0 40 40"><defs><style>.a{fill:#292930;}.b{fill:#fffefe;}</style></defs><g transform="translate(-736 -320)"><rect class="a" width="40" height="40" rx="6" transform="translate(736 320)"/><g transform="translate(206.737 -60.69)"><path class="b" d="M542.139,402.684l6.082,2.188.1.028.14.02.08,0,.108-.006.108-.017.136-.038,6.054-2.178a1.073,1.073,0,0,0,.71-1.009V393.94l-.021-.205-.023-.1-.065-.167-.078-.132a1.266,1.266,0,0,0-.2-.218l-.1-.085h-.02a1.448,1.448,0,0,0-.209-.1l-6.041-2.175a1.089,1.089,0,0,0-.365-.064,1.075,1.075,0,0,0-.363.064l-6.1,2.2a.98.98,0,0,0-.211.12l-.023.006-.1.1a.96.96,0,0,0-.128.154l-.062.1-.059.137-.034.106-.023.123-.009.117v7.754A1.073,1.073,0,0,0,542.139,402.684Zm5.333-5.814v5.453l-3.9-1.4v-5.453Zm-1.8-2.931,2.875-1.035,2.874,1.035-2.874,1.035Zm3.948,8.383V396.87l3.9-1.4v5.453Z" transform="translate(0.667)"/><path class="b" d="M548.4,405.106a1.072,1.072,0,0,0-1.672,1.159c-.474-.03-.936-.072-1.383-.121-3.987-.411-5.542-1.29-5.885-1.62a4.017,4.017,0,0,1,1.539-.783,1.065,1.065,0,0,0,.828-1.044,1.1,1.1,0,0,0-1.093-1.071,1.023,1.023,0,0,0-.318.05c-2.1.686-3.157,1.64-3.157,2.838,0,2.571,4.925,3.463,7.858,3.763.535.059,1.092.107,1.664.14a1.1,1.1,0,0,0-.086.295,1.068,1.068,0,0,0,.205.8,1.081,1.081,0,0,0,.859.428,1.055,1.055,0,0,0,.643-.215l1.933-1.45a1.073,1.073,0,0,0,0-1.717Z" transform="translate(0 1.752)"/><path class="b" d="M556.04,401.674a1.1,1.1,0,0,0-.329-.051,1.073,1.073,0,0,0-.334,2.094,4.209,4.209,0,0,1,1.631.806c-.342.323-2.05,1.3-6.541,1.678a1.073,1.073,0,0,0,.087,2.143l.092,0c3.2-.267,8.56-1.121,8.56-3.825C559.205,403.316,558.141,402.361,556.04,401.674Z" transform="translate(1.957 1.751)"/></g></g></svg>