<svg xmlns="http://www.w3.org/2000/svg" width="40" height="40" viewBox="0 0 40 40"><defs><style>.a{fill:#292930;}.b{fill:#fffefe;}</style></defs><g transform="translate(-982 -465)"><rect class="a" width="40" height="40" rx="6" transform="translate(982 465)"/><path class="b" d="M16.01,4.01V4a4.005,4.005,0,0,0-4-4H4A4.012,4.012,0,0,0,0,4v8.02a4.01,4.01,0,0,0,3.99,4,4.005,4.005,0,0,0,4,4H16a4,4,0,0,0,4-4V8.01A4,4,0,0,0,16.01,4.01ZM2,12.02V4A2.006,2.006,0,0,1,4,2h8.01a2,2,0,0,1,2,2v8.02a2,2,0,0,1-2,2H3.99A2,2,0,0,1,2,12.02Zm16,4a1.993,1.993,0,0,1-2,2H7.99a2,2,0,0,1-2-2h6.02a4.005,4.005,0,0,0,4-4V6.01a2,2,0,0,1,1.99,2Z" transform="translate(992 475)"/></g></svg>