<svg xmlns="http://www.w3.org/2000/svg" width="40" height="40" viewBox="0 0 40 40"><defs><style>.a{fill:#292930;}.b{fill:#fffefe;fill-rule:evenodd;}.c,.e{fill:none;}.c{stroke:#fffefe;stroke-width:1.6px;}.d{stroke:none;}</style></defs><g transform="translate(-1053 -321)"><rect class="a" width="40" height="40" rx="6" transform="translate(1053 321)"/><path class="b" d="M17636.82,327.624a1.638,1.638,0,0,0-2.07-2.205l-7.061,2.2a2.018,2.018,0,0,0-.975.835l-3.289,6.565a1.645,1.645,0,0,0,1.951,2.278l7.426-2.2a1.824,1.824,0,0,0,1.1-.908Zm-8.523,1.578-3.408,6.53,7.428-2.194v-.006Z" transform="translate(-16556.893 9.952)"/><g class="c" transform="translate(1061 329)"><circle class="d" cx="12" cy="12" r="12"/><circle class="e" cx="12" cy="12" r="11.2"/></g></g></svg>