<svg xmlns="http://www.w3.org/2000/svg" width="40" height="40" viewBox="0 0 40 40"><defs><style>.a{fill:#fffefe;}.b{fill:#292930;}</style></defs><g transform="translate(-1145 -510)"><g transform="translate(18 -148)"><rect class="a" width="40" height="40" rx="6" transform="translate(1127 658)"/><g transform="translate(166.632 177.282)"><path class="b" d="M985.693,504.4l.745-.322a1.3,1.3,0,0,0,.753-1.075v-.754c0-.415-.338-.609-.753-.423l-.745.322a1.288,1.288,0,0,0-.762,1.075v.753C984.94,504.393,985.278,504.579,985.693,504.4Z"/><path class="b" d="M985.693,500.843l.745-.321a1.3,1.3,0,0,0,.753-1.075v-.754c0-.415-.338-.61-.753-.423l-.745.321a1.291,1.291,0,0,0-.762,1.076v.753C984.94,500.835,985.278,501.021,985.693,500.843Z"/><path class="b" d="M979.614,501.4l-.745.322a1.288,1.288,0,0,0-.762,1.075v.753c.009.415.347.6.762.423l.745-.321a1.3,1.3,0,0,0,.754-1.075v-.754C980.368,501.413,980.029,501.219,979.614,501.4Z"/><path class="b" d="M979.614,504.743l-.745.321a1.291,1.291,0,0,0-.762,1.076v.753c.009.415.347.6.762.423l.745-.321a1.3,1.3,0,0,0,.754-1.076v-.753C980.368,504.751,980.029,504.556,979.614,504.743Z"/><path class="b" d="M985.693,497.285l.745-.322a1.294,1.294,0,0,0,.753-1.075v-.753c0-.415-.338-.61-.753-.423l-.745.321a1.289,1.289,0,0,0-.762,1.075v.754C984.94,497.277,985.278,497.463,985.693,497.285Z"/><path class="b" d="M990.005,502.349V491.325c0-.01,0-.019,0-.029a.775.775,0,0,0-.052-.24c0-.01,0-.021-.007-.032s-.018-.023-.025-.036a.757.757,0,0,0-.122-.174c-.015-.016-.027-.034-.043-.048a.764.764,0,0,0-.213-.14l-6.8-2.849a.762.762,0,0,0-.591,0l-6.76,2.849a.761.761,0,0,0-.21.137.652.652,0,0,0-.044.049.766.766,0,0,0-.121.171c-.007.014-.02.023-.026.037s0,.024-.008.035a.73.73,0,0,0-.051.233.336.336,0,0,0-.005.034v3.641l-6.337,2.751a.739.739,0,0,0-.205.136.577.577,0,0,0-.04.045.75.75,0,0,0-.124.175c-.006.013-.019.022-.025.036s0,.023-.008.035a.759.759,0,0,0-.051.233c0,.011-.005.022-.005.033v5.855a3.18,3.18,0,0,0-.761,1.985c0,3.268,5.588,5.732,13,5.732a27.221,27.221,0,0,0,6.927-.846l-.362.7a.717.717,0,0,0,1.272.661l1.163-2.238c.007-.014.008-.028.014-.042s.017-.025.022-.039,0-.033.008-.049a.728.728,0,0,0,.029-.184c0-.025,0-.048,0-.072a.722.722,0,0,0-.059-.242l-.006-.009a.7.7,0,0,0-.11-.17c-.009-.01-.02-.015-.029-.025s-.038-.031-.058-.047a.725.725,0,0,0-.16-.1c-.015-.006-.025-.018-.04-.024l-2.545-.943a.716.716,0,1,0-.5,1.344l.554.206a26.163,26.163,0,0,1-6.125.691c-.8,0-1.569-.034-2.308-.092l4.683-1.966h0l6.794-2.851a.763.763,0,0,0,.467-.7v-.974c1.233.7,1.929,1.509,1.929,2.288a1.69,1.69,0,0,1-.329.952.717.717,0,0,0,1.181.812,3.085,3.085,0,0,0,.582-1.764C993.368,504.754,992.17,503.385,990.005,502.349ZM976.449,492.5l5.221,2.3,0,2.451-5.224-2.256Zm-.8,3.812,4.882,2.108-4.9,2.137-4.846-2.136Zm-6,3.273,5.222,2.3.012,7.6-5.234-2.209Zm6.758,9.911-.012-7.608,5.277-2.3.008,7.7Zm6.022-16.024-4.822-2.126,4.837-2.038,4.858,2.037Zm6.048,10.958-5.272,2.212v-8.23a.228.228,0,0,0,0-.028c0-.015-.005-.029-.006-.043l0-3.538,5.287-2.308Z"/></g></g></g></svg>