<svg id="Arrow_white_left" xmlns="http://www.w3.org/2000/svg" width="40" height="40" viewBox="0 0 40 40">
  <path id="Path_2190" data-name="Path 2190" d="M0,6A6,6,0,0,1,6,0H34a6,6,0,0,1,6,6V34a6,6,0,0,1-6,6H6a6,6,0,0,1-6-6Z" fill="#fafafa"/>
  <path id="Path_2191" data-name="Path 2191" d="M18.151,26.183a1.083,1.083,0,0,0,1.532-1.532L15.032,20l4.651-4.651a1.083,1.083,0,0,0-1.532-1.532l-5.417,5.417a1.083,1.083,0,0,0,0,1.532Zm7.583,0a1.083,1.083,0,1,0,1.532-1.532L22.616,20l4.651-4.651a1.083,1.083,0,1,0-1.532-1.532l-5.417,5.417a1.083,1.083,0,0,0,0,1.532Z" fill="#292930" fill-rule="evenodd"/>
</svg>
