<svg xmlns="http://www.w3.org/2000/svg" width="15.984" height="16" viewBox="0 0 15.984 16"><defs><style>.a{fill:#fffefe;fill-rule:evenodd;opacity:0.6;}</style></defs><path class="a" d="M27775.2,323.22h-11.223a2.435,2.435,0,0,0-2.381,2.4v11.2a2.435,2.435,0,0,0,2.381,2.4h11.223a2.361,2.361,0,0,0,2.381-2.4v-11.2A2.361,2.361,0,0,0,27775.2,323.22Zm-12.016,2.4a.787.787,0,0,1,.793-.8h11.223a.789.789,0,0,1,.795.8v11.2a.789.789,0,0,1-.795.8h-11.223a.787.787,0,0,1-.793-.8Z" transform="translate(-27761.598 -323.22)"/></svg>