<svg xmlns="http://www.w3.org/2000/svg" width="16" height="16" viewBox="0 0 16 16"><defs><style>.a{fill:#292930;}.b{fill:#fffefe;fill-rule:evenodd;}</style></defs><g transform="translate(-220 -703)"><rect class="a" width="16" height="16" rx="4" transform="translate(220 703)"/><path class="b" d="M28329.795,264.082a.552.552,0,0,1,.074.708l-4.9,5.005a.68.68,0,0,1-.426.151.455.455,0,0,1-.355-.177l-2.125-2.5a.532.532,0,0,1,.07-.706.5.5,0,0,1,.711.059l1.77,2.082,4.473-4.612A.5.5,0,0,1,28329.795,264.082Z" transform="translate(-28097.963 444.061)"/></g></svg>