<svg xmlns="http://www.w3.org/2000/svg" width="40" height="40" viewBox="0 0 40 40"><defs><style>.a{fill:#fffefe;}.b{fill:#292930;}</style></defs><g transform="translate(-982 -249)"><rect class="a" width="40" height="40" rx="6" transform="translate(982 249)"/><path class="b" d="M234.4,236.3V243.6a3.441,3.441,0,0,1-3.437,3.438H230.8a.859.859,0,0,1,0-1.719h.172a1.721,1.721,0,0,0,1.719-1.719v-3.739h-2.277v.43a.859.859,0,0,1-1.719,0v-2.578a.859.859,0,0,1,1.719,0v.429h2.277V236.3a1.721,1.721,0,0,0-1.719-1.719h-6.1v3.567h.429a.859.859,0,0,1,0,1.719h-2.578a.859.859,0,1,1,0-1.719h.43v-3.567h-2.364a.859.859,0,0,1,0-1.719h10.183A3.441,3.441,0,0,1,234.4,236.3Zm-7.949,9.024h-1.59v-1.633a.859.859,0,0,0-1.719,0v8.594a.861.861,0,0,1-.859.859H220.87a.859.859,0,0,0,0,1.719h1.419a2.581,2.581,0,0,0,2.578-2.578V247.04h1.59a.859.859,0,0,0,0-1.719Zm-6.274-2.062a.859.859,0,1,0-1.719,0v.473h-4.34V236.3a1.721,1.721,0,0,1,1.719-1.719h.645a.859.859,0,0,0,0-1.719h-.645A3.442,3.442,0,0,0,212.4,236.3v15.125a3.441,3.441,0,0,0,3.438,3.438h.688a.859.859,0,0,0,0-1.719h-.687a1.72,1.72,0,0,1-1.719-1.719v-5.972h4.34v.386a.859.859,0,1,0,1.719,0Z" transform="translate(778.595 25.141)"/></g></svg>