<svg xmlns="http://www.w3.org/2000/svg" width="40" height="40" viewBox="0 0 40 40"><defs><style>.a{fill:#292930;}.b{fill:#fffefe;fill-rule:evenodd;}</style></defs><g transform="translate(-1053 -610)"><rect class="a" width="40" height="40" rx="6" transform="translate(1053 610)"/><path class="b" d="M29966.18,447.427h12.639a2.742,2.742,0,0,1,2.68,2.7v12.613a2.743,2.743,0,0,1-2.68,2.7h-12.639a2.659,2.659,0,0,1-2.682-2.7V450.13A2.659,2.659,0,0,1,29966.18,447.427Zm0,1.8a.884.884,0,0,0-.893.9v12.613a.884.884,0,0,0,.893.9h12.639a.886.886,0,0,0,.893-.9V450.13a.886.886,0,0,0-.893-.9Zm6.254,6.082a1.135,1.135,0,0,1,1.15,1.126v3.6a1.15,1.15,0,0,1-2.3,0v-3.6A1.136,1.136,0,0,1,29972.434,455.31Zm0-3.379a1.127,1.127,0,1,0,1.15,1.126A1.136,1.136,0,0,0,29972.434,451.931Z" transform="translate(-28899.496 173.573)"/></g></svg>