<svg xmlns="http://www.w3.org/2000/svg" width="40" height="40" viewBox="0 0 40 40"><defs><style>.a{fill:#fffefe;}.b{fill:#292930;fill-rule:evenodd;}</style></defs><g transform="translate(-702 -666)"><circle class="a" cx="20" cy="20" r="20" transform="translate(702 666)"/><path class="b" d="M30284.922,407.323a11,11,0,0,1,0-22,11,11,0,1,1,0,22Zm0-19.8a8.8,8.8,0,1,0,8.895,8.8A8.758,8.758,0,0,0,30284.922,387.524Zm0,7.424a1.387,1.387,0,0,1,1.406,1.375v4.4a1.386,1.386,0,0,1-1.406,1.375,1.358,1.358,0,0,1-1.248-1.375v-4.4A1.359,1.359,0,0,1,30284.922,394.948Zm0-4.124a1.381,1.381,0,0,0,0,2.749,1.375,1.375,0,1,0,0-2.749Z" transform="translate(-29563 289.677)"/></g></svg>