<svg xmlns="http://www.w3.org/2000/svg" width="40" height="40" viewBox="0 0 40 40"><defs><style>.a{fill:#292930;}.b{fill:#fffefe;fill-rule:evenodd;}</style></defs><g transform="translate(-736 -251)"><circle class="a" cx="20" cy="20" r="20" transform="translate(736 251)"/><path class="b" d="M13235.564,323.22h-3.943a2.505,2.505,0,0,0-2.535,2.484v3.976a2.505,2.505,0,0,0,2.535,2.484h3.943a2.5,2.5,0,0,0,2.535-2.484V325.7A2.5,2.5,0,0,0,13235.564,323.22Zm-4.508,2.484a.553.553,0,0,1,.564-.5h3.943c.283,0,.422.223.422.5v3.976c0,.275-.139.5-.422.5h-3.943a.553.553,0,0,1-.564-.5Zm-10.141-1.551-1.83,1.782a2.456,2.456,0,0,0,0,3.514l1.83,1.782a2.494,2.494,0,0,0,3.521,0l1.689-1.782a2.456,2.456,0,0,0,0-3.514l-1.689-1.782A2.494,2.494,0,0,0,13220.916,324.154Zm-.422,3.89a.638.638,0,0,1,0-.7l1.832-1.782c.141-.194.422-.194.7,0l1.689,1.782a.4.4,0,0,1,0,.7l-1.689,1.782c-.281.194-.562.194-.7,0Zm4.084,6.11h-3.943a2.505,2.505,0,0,0-2.535,2.484v3.976a2.505,2.505,0,0,0,2.535,2.484h3.943a2.505,2.505,0,0,0,2.535-2.484v-3.976A2.505,2.505,0,0,0,13224.578,334.154Zm-4.365,2.484c0-.275.141-.5.422-.5h3.943a.551.551,0,0,1,.563.5v3.976a.551.551,0,0,1-.562.5h-3.943c-.281,0-.422-.223-.422-.5Zm13.379,6.46a4.473,4.473,0,1,1,0-8.945,4.473,4.473,0,1,1,0,8.945Zm0-6.958a2.486,2.486,0,1,0,0,4.97,2.487,2.487,0,0,0,0-4.97Z" transform="translate(-12472.1 -62.22)"/></g></svg>