<svg xmlns="http://www.w3.org/2000/svg" width="40" height="40" viewBox="0 0 40 40"><defs><style>.a{fill:#fffefe;}.b{fill:#292930;fill-rule:evenodd;}</style></defs><g transform="translate(-736 -395)"><circle class="a" cx="20" cy="20" r="20" transform="translate(736 395)"/><path class="b" d="M5.837,38.806a2.879,2.879,0,0,0-4.042-.3L.482,39.619l-.643.564a2.876,2.876,0,0,0-2.874-2.7h-8.6a2.857,2.857,0,0,0-2.848,2.861v7.652a2.868,2.868,0,0,0,2.861,2.861h8.584a2.886,2.886,0,0,0,2.874-2.7l.643.564,1.312,1.116A2.868,2.868,0,0,0,6.52,47.652V40.682A2.9,2.9,0,0,0,5.837,38.806ZM-2.077,47.98a.947.947,0,0,1-.958.958h-8.584a.952.952,0,0,1-.958-.945V40.341a.941.941,0,0,1,.945-.945h8.6a.944.944,0,0,1,.958.945Zm6.694-.328a.976.976,0,0,1-.236.617.945.945,0,0,1-1.352.1l-1.3-1.116-1.89-1.627v-2.94l1.89-1.614,1.3-1.129a.969.969,0,0,1,1.588.735Z" transform="translate(760.48 370.52)"/></g></svg>