<svg xmlns="http://www.w3.org/2000/svg" width="40" height="40" viewBox="0 0 40 40"><defs><style>.a{fill:#fffefe;}.b{fill:#292930;fill-rule:evenodd;}</style></defs><g transform="translate(-290 -632)"><rect class="a" width="40" height="40" rx="6" transform="translate(290 632)"/><path class="b" d="M30026.3,760.949a.874.874,0,0,1,.879-.888h14.236a.889.889,0,0,1,0,1.778h-14.236A.874.874,0,0,1,30026.3,760.949Zm0,5.336a.874.874,0,0,1,.879-.889h14.236a.889.889,0,0,1,0,1.778h-14.236A.873.873,0,0,1,30026.3,766.285Zm.879,4.445a.89.89,0,0,0,0,1.779h14.236a.89.89,0,0,0,0-1.779Z" transform="translate(-29724 -114)"/></g></svg>