<svg xmlns="http://www.w3.org/2000/svg" width="16" height="11.172" viewBox="0 0 16 11.172"><defs><style>.a{fill-rule:evenodd;}</style></defs><path class="a" d="M29841.125,1324.248c0,.125-.125.236-.125.328s.125.2.125.338a13.16,13.16,0,0,0,1.125,1.5,7,7,0,0,0,4.969,2.148,6.708,6.708,0,0,0,4.969-2.148,6.165,6.165,0,0,0,1.125-1.5c.125-.135.125-.248.25-.338-.125-.092-.125-.2-.25-.328a6.047,6.047,0,0,0-1.125-1.516,6.708,6.708,0,0,0-4.969-2.148,7,7,0,0,0-4.969,2.148A12.515,12.515,0,0,0,29841.125,1324.248Zm14,.645-.656-.316.656.316a.581.581,0,0,0,0-.633l-.656.316.656-.316h0v-.068c0-.045-.094-.1-.094-.182a3.11,3.11,0,0,1-.344-.6,6.255,6.255,0,0,0-1.375-1.787,8.246,8.246,0,0,0-6.094-2.635,8.359,8.359,0,0,0-6.094,2.635c-.562.656-1.031,1.3-1.375,1.787a3.2,3.2,0,0,1-.312.6c0,.08,0,.137-.125.182v.068h0l.781.316-.781-.316a.581.581,0,0,0,0,.633l.781-.316-.781.316h0v.078a.143.143,0,0,1,.125.17,3.287,3.287,0,0,1,.313.6c.344.486.813,1.131,1.375,1.787a8.367,8.367,0,0,0,6.094,2.635,8.253,8.253,0,0,0,6.094-2.635,6.255,6.255,0,0,0,1.375-1.787,3.2,3.2,0,0,1,.344-.6c0-.068.094-.135.094-.17v-.078Zm-7.906,1.277a1.594,1.594,0,1,1,1.594-1.594A1.577,1.577,0,0,1,29847.219,1326.17Zm-3.156-1.594a3.208,3.208,0,0,1,3.156-3.189,3.189,3.189,0,0,1,0,6.377A3.206,3.206,0,0,1,29844.063,1324.576Z" transform="translate(-29839.219 -1318.99)"/></svg>