<svg xmlns="http://www.w3.org/2000/svg" width="16.004" height="15.968" viewBox="0 0 16.004 15.968"><defs><style>.a{fill-rule:evenodd;}</style></defs><path class="a" d="M29916,1317.107a.787.787,0,0,1,1.129,0,1.026,1.026,0,0,1,0,1.131l-2.715,2.725c.34.294.68.622,1.02.938a6.5,6.5,0,0,1,1.355,1.787,1.056,1.056,0,0,1,.34.6c0,.079.113.136.113.181v.068h0l-.68.317.68.317h0v.079c0,.034-.113.1-.113.17a1.056,1.056,0,0,1-.34.6,6.5,6.5,0,0,1-1.355,1.787,8.363,8.363,0,0,1-6.109,2.635,8.274,8.274,0,0,1-3.617-.825l-2.941,2.985a.787.787,0,0,1-1.129,0,.755.755,0,0,1,0-1.131Zm-9.047,11.3a6.328,6.328,0,0,0,2.371.441,6.791,6.791,0,0,0,4.977-2.149,6.389,6.389,0,0,0,1.133-1.5c.113-.136.113-.249.227-.339-.113-.09-.113-.2-.227-.328a6.189,6.189,0,0,0-1.133-1.515c-.34-.317-.68-.622-1.016-.916l-1.133,1.142a3.759,3.759,0,0,1,.34,1.617,3.137,3.137,0,0,1-3.168,3.189,3.036,3.036,0,0,1-1.582-.441Zm2.031-2.013a.909.909,0,0,0,.34.057,1.57,1.57,0,0,0,1.586-1.594v-.407Zm7.578-1.538.68.317a.633.633,0,0,0,0-.633Zm-7.238-5.587a8.782,8.782,0,0,1,2.035.238l-1.355,1.38c-.227-.011-.453-.023-.68-.023a6.527,6.527,0,0,0-4.863,2.149,7.287,7.287,0,0,0-1.242,1.515c0,.124-.113.237-.113.328s.113.2.113.339a8.953,8.953,0,0,0,1.02,1.368l-1.133,1.131a15.837,15.837,0,0,1-1.242-1.674,3.355,3.355,0,0,0-.34-.6v-.17c-.113-.023-.113-.045-.113-.057v-.023h0l.789-.317-.789.317a.633.633,0,0,1,0-.633l.789.317-.789-.317h0v-.023c0-.011,0-.023.113-.045v-.181a3.356,3.356,0,0,0,.34-.6,20.524,20.524,0,0,1,1.355-1.787A8.354,8.354,0,0,1,29909.324,1319.267Zm-3.164,5.417a3.2,3.2,0,0,1,3.055-3.02Z" transform="translate(-29901.324 -1316.87)"/></svg>