<svg xmlns="http://www.w3.org/2000/svg" width="17.982" height="18" viewBox="0 0 17.982 18"><defs><style>.a{fill:#fffefe;fill-rule:evenodd;}</style></defs><path class="a" d="M14644.9,261.116h-12.625a2.658,2.658,0,0,0-2.68,2.7v12.6a2.658,2.658,0,0,0,2.68,2.7h12.625a2.739,2.739,0,0,0,2.678-2.7v-12.6A2.74,2.74,0,0,0,14644.9,261.116Zm-13.518,2.7a.885.885,0,0,1,.893-.9h12.625a.887.887,0,0,1,.893.9v12.6a.887.887,0,0,1-.893.9h-12.625a.884.884,0,0,1-.893-.9Zm7.268,3a1.69,1.69,0,0,0-1.785-.089,1.766,1.766,0,0,0-1.02,1.586v3.6a1.768,1.768,0,0,0,1.02,1.588,1.7,1.7,0,0,0,1.785-.089l2.678-1.8a1.7,1.7,0,0,0,0-3Zm.127,4.379-1.145.718v-3.6l1.145.719.639.481.895.6-.895.6Z" transform="translate(-14629.598 -261.116)"/></svg>