<svg id="Guide_stop_black" xmlns="http://www.w3.org/2000/svg" width="40" height="40" viewBox="0 0 40 40">
  <path id="Path_2198" data-name="Path 2198" d="M0,6A6,6,0,0,1,6,0H34a6,6,0,0,1,6,6V34a6,6,0,0,1-6,6H6a6,6,0,0,1-6-6Z" fill="#292930"/>
  <path id="Path_2199" data-name="Path 2199" d="M16.75,27.042a1.625,1.625,0,0,1-1.625-1.625V14.584a1.625,1.625,0,1,1,3.25,0V25.417a1.625,1.625,0,0,1-1.625,1.625Z" fill="#fafafa"/>
  <path id="Path_2200" data-name="Path 2200" d="M23.25,27.042a1.625,1.625,0,0,1-1.625-1.625V14.584a1.625,1.625,0,1,1,3.25,0V25.417a1.625,1.625,0,0,1-1.625,1.625Z" fill="#fafafa"/>
</svg>
