<svg xmlns="http://www.w3.org/2000/svg" width="40" height="40" viewBox="0 0 40 40"><defs><style>.a{fill:#292930;}.b{fill:#fffefe;fill-rule:evenodd;}</style></defs><path class="a" d="M6,0H34a6,6,0,0,1,6,6V34a6,6,0,0,1-6,6H6a6,6,0,0,1-6-6V6A6,6,0,0,1,6,0Z"/><path class="b" d="M30223.123,448.225a.786.786,0,0,1,.793-.8h3.176a.727.727,0,0,1,.566.234,1,1,0,0,1,.225.565v3.227a.794.794,0,1,1-1.588,0v-1.291l-3.4,3.449a.805.805,0,0,1-1.137,0,.758.758,0,0,1,0-1.129l3.4-3.461h-1.246A.786.786,0,0,1,30223.123,448.225Zm-5.1,9.015a.753.753,0,0,1,0,1.129l-3.4,3.462h1.25a.8.8,0,0,1,0,1.6h-3.176a.721.721,0,0,1-.566-.234.988.988,0,0,1-.227-.565V459.4a.793.793,0,1,1,1.586,0v1.291l3.4-3.45A.8.8,0,0,1,30218.021,457.24Z" transform="translate(-30199.9 -435.427)"/></svg>