<svg xmlns="http://www.w3.org/2000/svg" width="40" height="40" viewBox="0 0 40 40"><defs><style>.a{fill:#fffefe;}.b{fill:#292930;fill-rule:evenodd;}</style></defs><g transform="translate(-5 -5)"><rect class="a" width="40" height="40" rx="6" transform="translate(5 5)"/><path class="b" d="M118.131-797a3.256,3.256,0,0,0-3.121,2.5l-.468,1.9h-2.5a3.251,3.251,0,0,0-3.276,3.227v8.885a3.251,3.251,0,0,0,3.2,3.3h15.523a3.252,3.252,0,0,0,3.276-3.227V-789.3a3.252,3.252,0,0,0-3.2-3.3H125l-.468-1.9a3.256,3.256,0,0,0-3.12-2.5Zm4.68,4.4-.467-1.368a.9.9,0,0,0-.936-.835h-3.276a1.2,1.2,0,0,0-1.092.835l-.313,1.368Zm-8.894,2.2h-1.872a1.084,1.084,0,0,0-1.093,1.073v8.838a1.084,1.084,0,0,0,1.065,1.1h15.474a1.084,1.084,0,0,0,1.093-1.073v-8.837a1.084,1.084,0,0,0-1.064-1.1h-13.6Zm1.4,5.506a4.446,4.446,0,0,0,4.4,4.488,4.446,4.446,0,0,0,4.489-4.4,4.447,4.447,0,0,0-4.406-4.488h-.119A4.435,4.435,0,0,0,115.322-784.888Zm4.369,2.2a2.2,2.2,0,0,1-2.144-2.261,2.2,2.2,0,0,1,2.144-2.144,2.206,2.206,0,0,1,2.333,2.071,2.207,2.207,0,0,1-2.071,2.334A2.26,2.26,0,0,1,119.691-782.686Zm5.616-5.5a1.092,1.092,0,0,0,1.1,1.083,1.093,1.093,0,0,0,1.083-1.1,1.1,1.1,0,0,0-1.092-1.083,1.083,1.083,0,0,0-1.091,1.075v.027Z" transform="translate(-94.77 810.999)"/></g></svg>