<svg xmlns="http://www.w3.org/2000/svg" width="12.815" height="16" viewBox="0 0 12.815 16"><defs><style>.a{fill:#292930;fill-rule:evenodd;}</style></defs><path class="a" d="M-105.754,277.762a.758.758,0,0,1-.064-1.069c.02-.022.042-.044.064-.064a.8.8,0,0,1,1.133.01l2.608,2.676v-8.441a.868.868,0,0,1,.792-.8.892.892,0,0,1,.908.8v8.441l2.607-2.676a.8.8,0,0,1,1.129-.014l.005,0a.858.858,0,0,1,0,1.133l-4.08,4.072a.714.714,0,0,1-.567.24,1.28,1.28,0,0,1-.566-.24Zm-1.021,6.711a.8.8,0,0,0-.8.8.8.8,0,0,0,.8.8h11.221a.8.8,0,0,0,.8-.8.8.8,0,0,0-.8-.8Z" transform="translate(107.572 -270.073)"/></svg>