<svg xmlns="http://www.w3.org/2000/svg" width="50" height="50" viewBox="0 0 50 50"><defs><style>.a{fill:#fffefe;}.b{fill:#292930;fill-rule:evenodd;}</style></defs><g transform="translate(-1044 -167)"><rect class="a" width="50" height="50" rx="10" transform="translate(1094 217) rotate(180)"/><path class="b" d="M29981.035,333.232a1.306,1.306,0,0,1,.16,1.7,1.209,1.209,0,0,1-1.7.112l-2.9-2.461v11.769a1.19,1.19,0,1,1-2.381,0V332.578l-2.725,2.461a1.2,1.2,0,0,1-1.7-.112,1.128,1.128,0,0,1,0-1.7l4.934-4.2a1.134,1.134,0,0,1,1.535,0Zm-15.156-3.3a1.191,1.191,0,1,1-2.383,0v-3.6a2.361,2.361,0,0,1,2.383-2.4h19.234a2.362,2.362,0,0,1,2.383,2.4v3.6a1.191,1.191,0,1,1-2.383,0v-3.6h-19.234Z" transform="translate(-28906.504 -142.945)"/></g></svg>