<svg xmlns="http://www.w3.org/2000/svg" width="17.482" height="14" viewBox="0 0 17.482 14"><defs><style>.a{fill:#292930;fill-rule:evenodd;}</style></defs><path class="a" d="M14515.816,326.382a1.722,1.722,0,0,0-2.852-1.329l-2.6,2.2h-3.225a1.721,1.721,0,0,0-1.734,1.751v5.249a1.721,1.721,0,0,0,1.734,1.751h3.225l2.6,2.2a1.722,1.722,0,0,0,2.852-1.329Zm-1.736,0v10.5l-1.736-1.5-.99-.915a1.127,1.127,0,0,0-.621-.211h-3.6v-5.249h3.6a1.127,1.127,0,0,0,.621-.211l.99-.914Zm6.693.076a.83.83,0,0,1,1.117.443h0v.034c0,.019,0,.045.123.078v.284a5.862,5.862,0,0,1,.371,1.008,11.315,11.315,0,0,1,0,6.653,5.882,5.882,0,0,1-.371,1.009v.283c-.123.033-.123.061-.123.079v.032h0s0,0-.742-.356l.742.357a.83.83,0,0,1-1.117.441.916.916,0,0,1-.494-1.156v-.011c0-.01,0-.029.123-.053v-.227a1.657,1.657,0,0,0,.248-.867,8.462,8.462,0,0,0,0-5.72,1.665,1.665,0,0,0-.248-.867v-.227c-.123-.025-.123-.042-.123-.053v-.011A.916.916,0,0,1,14520.773,326.457Zm-2.6,1.733a.821.821,0,0,1,1.113.5l-.123.04a2.873,2.873,0,0,1-.619.276l.742-.316v0h0v.072c.127.042.127.1.127.176a5.893,5.893,0,0,1,.123.617,8.791,8.791,0,0,1,0,4.147,6.032,6.032,0,0,1-.123.617c0,.074,0,.133-.127.175v.074h0l-.742-.317.742.317a.821.821,0,0,1-1.113.5.875.875,0,0,1-.494-1.129v-.15c.123-.11.123-.275.123-.485a5.832,5.832,0,0,0,0-3.353c0-.209,0-.374-.123-.484v-.15A.876.876,0,0,1,14518.172,328.191Z" transform="translate(-14505.402 -324.631)"/></svg>