<?xml version="1.0" encoding="UTF-8" standalone="no" ?>
<!DOCTYPE svg PUBLIC "-//W3C//DTD SVG 1.1//EN" "http://www.w3.org/Graphics/SVG/1.1/DTD/svg11.dtd">
<svg xmlns="http://www.w3.org/2000/svg" xmlns:xlink="http://www.w3.org/1999/xlink" version="1.1" width="400" height="400" viewBox="0 0 400 400" xml:space="preserve">
<desc>Created with Fabric.js 3.6.3</desc>
<defs>
</defs>
<g transform="matrix(17.77 0 0 20.79 200.05 200.2)"  >
<path style="stroke: none; stroke-width: 1; stroke-dasharray: none; stroke-linecap: butt; stroke-dashoffset: 0; stroke-linejoin: miter; stroke-miterlimit: 4; fill: rgb(255,255,255); fill-rule: nonzero; opacity: 1;"  transform=" translate(-12, -12)" d="M 4 4 H 15 C 16.1046 4 17 4.89543 17 6 V 13 C 17 14.1046 16.1046 15 15 15 H 4 C 2.89543 15 2 14.1046 2 13 V 6 C 2 4.89543 2.89543 4 4 4 Z M 15 5.5 H 4 C 3.72386 5.5 3.5 5.72386 3.5 6 V 13 C 3.5 13.2761 3.72386 13.5 4 13.5 H 15 C 15.2761 13.5 15.5 13.2761 15.5 13 V 6 C 15.5 5.72386 15.2761 5.5 15 5.5 Z M 4.56302 16 C 4.78504 16.8626 5.56809 17.5 6.50001 17.5 H 15.5 C 17.7091 17.5 19.5 15.7091 19.5 13.5 V 8.49998 C 19.5 7.56806 18.8626 6.78501 18 6.56299 V 13.5 C 18 14.8807 16.8807 16 15.5 16 H 4.56302 Z M 7.06302 18.5 C 7.28504 19.3626 8.06809 20 9.00001 20 H 16.25 C 19.4256 20 22 17.4256 22 14.25 V 11 C 22 10.0681 21.3626 9.28501 20.5 9.06299 V 14.25 C 20.5 16.5972 18.5972 18.5 16.25 18.5 H 7.06302 Z" stroke-linecap="round" />
</g>
</svg>