<svg xmlns="http://www.w3.org/2000/svg" width="85" height="40" viewBox="0 0 85 40"><defs><style>.a{fill:#292930;}.b,.c{fill:#fffefe;}.c{font-size:10px;font-family:Montserrat-Medium, Montserrat;font-weight:500;}</style></defs><g transform="translate(-242 -1024)"><rect class="a" width="85" height="40" rx="6" transform="translate(242 1024)"/><g transform="translate(255 1044.002)"><path class="b" d="M3.925,11.484.091.92A1.084,1.084,0,0,1,0,.571.572.572,0,0,1,.571,0a.617.617,0,0,1,.571.486L4.571,10.4,8,.445A.571.571,0,0,1,8.57,0h.046a.571.571,0,0,1,.571.44l3.382,9.97L16,.451a.578.578,0,0,1,1.143.12,1.085,1.085,0,0,1-.091.389L13.2,11.495a.674.674,0,0,1-.628.5h-.04a.651.651,0,0,1-.623-.531L8.57,1.874,5.211,11.461a.651.651,0,0,1-.64.537h0A.674.674,0,0,1,3.925,11.484Z" transform="translate(0 -0.001)"/><path class="b" d="M76.675,11.484,72.841.92A1.084,1.084,0,0,1,72.75.571.572.572,0,0,1,73.321,0a.617.617,0,0,1,.571.486L77.286,10.4,80.714.446a.571.571,0,0,1,.571-.434h.046a.571.571,0,0,1,.571.44L85.3,10.415,88.724.457a.582.582,0,0,1,1.143.1,1.086,1.086,0,0,1-.091.389L85.948,11.5a.674.674,0,0,1-.623.5h-.046a.651.651,0,0,1-.623-.531L81.331,1.874l-3.371,9.593a.651.651,0,0,1-.623.526h-.046A.674.674,0,0,1,76.675,11.484Z" transform="translate(-31.186 -0.001)"/><path class="b" d="M48.179,0a6,6,0,0,0-5.251,3.1,6,6,0,1,0,0,5.8A6,6,0,1,0,48.179,0Zm-10.5,8.638A2.64,2.64,0,1,1,40.324,6h0A2.646,2.646,0,0,1,37.684,8.638Zm10.5,0A2.64,2.64,0,1,1,50.819,6,2.639,2.639,0,0,1,48.179,8.638Z" transform="translate(-13.58 0)"/></g><text class="c" transform="translate(285 1039)"><tspan x="-27.505" y="0">Created by</tspan></text></g></svg>