<svg xmlns="http://www.w3.org/2000/svg" width="14.112" height="14.114" viewBox="0 0 14.112 14.114"><defs><style>.a{fill:#292930;fill-rule:evenodd;opacity:0.5;}</style></defs><path class="a" d="M6204.85,261.529a1.406,1.406,0,0,1,1.99,0l1.67,1.675a1.411,1.411,0,0,1,0,1.994l-6.94,6.947a1.363,1.363,0,0,1-.72.385l-2.09.425a1.4,1.4,0,0,1-1.66-1.661l.42-2.1a1.492,1.492,0,0,1,.38-.717Zm-6.07,8.545.08-.374,1.49,1.494-.38.076-1.49.3Zm2.65.214-1.67-1.675,5.09-5.09.99-1,.68.678.32.319.68.678-1,1Zm-5.91,3.533a.705.705,0,1,0,0,1.41h12.68a.705.705,0,0,0,0-1.41Z" transform="translate(-6194.81 -261.117)"/></svg>