<svg xmlns="http://www.w3.org/2000/svg" width="40" height="40" viewBox="0 0 40 40"><defs><style>.a{fill:#fffefe;}.b{fill:#292930;fill-rule:evenodd;}</style></defs><g transform="translate(-1364 -647)"><rect class="a" width="40" height="40" rx="6" transform="translate(1364 647)"/><path class="b" d="M30036.818,585.115a6.741,6.741,0,1,0-6.752-6.741,6.674,6.674,0,0,0,1.4,4.131c-.129.042-.129.1-.254.177l-5.348,5.392a.847.847,0,0,0,0,1.271.9.9,0,0,0,1.273,0l5.348-5.392a.239.239,0,0,0,.129-.252A6.983,6.983,0,0,0,30036.818,585.115Zm0-11.683a4.943,4.943,0,1,1,0,9.886,4.943,4.943,0,1,1,0-9.886Zm-3.186,4.943a.882.882,0,0,0,.889.9h4.584a.9.9,0,0,0,0-1.8h-4.584A.881.881,0,0,0,30033.633,578.374Z" transform="translate(-28650.578 86.367)"/></g></svg>