<svg id="Ebene_2" data-name="Ebene 2" xmlns="http://www.w3.org/2000/svg" viewBox="0 0 423.5 426.48"><title>Baumit_logo</title><path d="M79,80.37A16.84,16.84,0,0,0,79,46.7H0v-45H82.35c31.52,0,58.12,24.49,58.12,61.82,0,25.76-12.87,39.17-12.87,39.17a60.79,60.79,0,0,1,12.87,37.64c0,32.34-26.62,60.6-57.78,60.6H0V156.57H79.57a16.22,16.22,0,1,0,0-32.44H0V80.37Z" style="fill:#1a171b"/><rect y="224.82" width="135.42" height="44.71" style="fill:#1a171b"/><polygon points="0 334.18 91.36 334.18 91.36 287.22 135.42 287.22 135.42 426.48 91.36 426.48 91.36 379.53 0 379.53 0 334.18" style="fill:#1a171b"/><rect x="149.9" y="153.2" width="273.6" height="273.28" style="fill:#e2001a"/><path d="M423.5,80.78a61.06,61.06,0,1,1-122.11,0V1.72h44V80a17.1,17.1,0,0,0,34.19,0V1.72h44Z" style="fill:#1a171b"/><path d="M246.39,71.76a26.6,26.6,0,1,0-10,20.77V140a70.93,70.93,0,1,1,54.67-69v68.35h-44.7Z" style="fill:#1a171b"/></svg>