<?xml version="1.0" encoding="UTF-8"?>
<!-- Generator: Adobe Illustrator 15.1.0, SVG Export Plug-In  -->
<!DOCTYPE svg PUBLIC "-//W3C//DTD SVG 1.1//EN" "http://www.w3.org/Graphics/SVG/1.1/DTD/svg11.dtd">
<svg version="1.1" xmlns="http://www.w3.org/2000/svg" xmlns:xlink="http://www.w3.org/1999/xlink" xmlns:a="http://ns.adobe.com/AdobeSVGViewerExtensions/3.0/" x="0px" y="0px" width="1274px" height="180px" viewBox="0 0 1274 180" enable-background="new 0 0 1274 180" xml:space="preserve">
<defs>
</defs>
<polygon fill="#F0F0F0" points="83.069,30.008 75.358,75.92 37.51,75.92 45.216,30.008 19.634,30.008 0,146.893 25.762,146.893   33.826,98.175 71.674,98.175 63.439,146.893 89.202,146.893 108.65,30.008 "/>
<g>
	<defs>
		<rect id="SVGID_1_" width="1273.977" height="180.193"/>
	</defs>
	<clipPath id="SVGID_2_">
		<use xlink:href="#SVGID_1_" overflow="visible"/>
	</clipPath>
	<path clip-path="url(#SVGID_2_)" fill="#F0F0F0" d="M151.77,107.813c-0.176,3.326-0.358,4.909-0.358,6.657   c0,10.166,5.786,16.646,14.726,16.646c8.058,0,13.844-4.55,17.347-13.838l21.378,3.68c-6.834,18.223-21.026,28.212-40.302,28.212   c-23.132,0-38.554-16.117-38.554-40.126c0-13.149,4.556-25.944,12.962-35.928c8.245-9.988,19.635-15.245,33.126-15.245   c22.079,0,36.8,15.774,36.8,39.259c0,1.925-0.348,6.651-0.872,10.684H151.77z M185.062,93.445c0.353-2.277,0.353-3.513,0.353-5.084   c0-8.759-5.262-14.368-13.32-14.368c-5.433,0-10.689,2.802-13.844,7.534c-2.107,3.16-3.155,5.786-4.556,11.918H185.062z"/>
	<path clip-path="url(#SVGID_2_)" fill="#F0F0F0" d="M281.975,146.894c-0.176-3.86-0.176-3.86-0.176-5.261   c0-1.396,0.176-2.626,0.529-5.609c0.171-1.92,0.348-2.621,0.348-4.203c-5.085,11.037-15.245,17.347-28.036,17.347   c-15.074,0-25.939-9.983-25.939-23.827c0-12.096,7.01-21.202,20.506-26.641c8.059-3.325,20.149-5.256,38.377-6.31   c1.225-3.149,1.578-5.256,1.578-7.705c0-6.486-4.38-10.513-11.395-10.513c-8.935,0-13.844,3.674-17.518,13.31l-22.784-2.621   c6.133-17.699,20.325-26.645,42.409-26.645c21.025,0,33.821,9.647,33.821,25.239c0,3.855-0.177,5.257-2.454,18.924l-3.679,22.26   c-1.225,7.358-1.754,11.738-1.754,16.47c0,2.102,0,3.331,0.347,5.785H281.975z M274.965,105.71   c-13.143,2.102-19.977,7.882-19.977,16.821c0,6.311,4.031,10.69,9.812,10.69c10.694,0,18.052-10.165,20.859-28.56   C280.75,105.01,278.12,105.186,274.965,105.71"/>
	<polygon clip-path="url(#SVGID_2_)" fill="#F0F0F0" points="363.114,146.893 338.052,146.893 357.681,30.008 382.738,30.008  "/>
	<path clip-path="url(#SVGID_2_)" fill="#F0F0F0" d="M436.539,79.776l-5.78,34.875c-0.525,3.673-0.877,5.956-0.877,7.534   c0,5.085,3.154,7.005,11.042,7.005c3.673,0,6.657-0.171,9.282-0.695l-3.149,19.1c-7.182,1.049-11.743,1.401-17.175,1.401   c-17.7,0-26.111-6.834-26.111-21.202c0-5.085,0.177-6.834,2.802-19.453l5.609-28.565h-13.32l3.332-19.977h14.544l5.962-24.009   l21.897-0.524L440.57,59.8h19.977l-3.331,19.977H436.539z"/>
	<path clip-path="url(#SVGID_2_)" fill="#F0F0F0" d="M522.934,146.893l8.935-52.926c0.529-2.975,0.706-5.428,0.706-7.358   c0-5.257-4.032-8.936-9.641-8.936c-4.909,0-9.288,2.631-12.09,7.358c-2.631,4.037-2.979,5.61-5.438,20.154l-7.005,41.708h-25.062   l19.629-116.885h25.057l-7.181,42.58c6.481-9.812,14.192-14.368,24.356-14.368c13.668,0,23.138,9.288,23.138,22.608   c0,4.727-0.177,5.604-2.636,20.148l-7.535,45.917H522.934z"/>
	<path clip-path="url(#SVGID_2_)" fill="#F0F0F0" d="M623.354,141.986c-10.165,21.207-11.742,23.833-19.1,29.442   c-5.08,4.032-11.743,5.78-21.908,5.78c-3.85,0-7.005-0.171-9.283-0.348l1.401-19.452c7.358,0.877,8.059,0.877,10.518,0.877   c9.978,0,13.839-2.809,17.347-12.438l-19.983-86.048h26.292l10.331,52.922l23.662-52.922h19.624L623.354,141.986z"/>
	<polygon clip-path="url(#SVGID_2_)" fill="#F0F0F0" points="682.619,146.893 702.243,30.008 716.445,30.008 698.917,134.45    756.924,134.45 754.822,146.893  "/>
	<polygon clip-path="url(#SVGID_2_)" fill="#F0F0F0" points="783.911,146.893 798.455,60.15 811.952,60.15 797.402,146.893  "/>
	<polygon clip-path="url(#SVGID_2_)" fill="#F0F0F0" points="856.986,146.893 839.292,60.15 853.66,60.15 866.808,128.141    900.972,60.15 912.891,60.15 869.429,146.893  "/>
	<polygon clip-path="url(#SVGID_2_)" fill="#F0F0F0" points="928.312,146.893 942.855,60.15 956.353,60.15 941.803,146.893  "/>
	<path clip-path="url(#SVGID_2_)" fill="#F0F0F0" d="M1038.019,146.893l8.406-49.943c0.877-5.085,1.405-10.17,1.405-12.266   c0-9.813-6.31-16.299-16.121-16.299c-8.582,0-16.299,5.085-22.261,14.55c-4.379,7.181-7.182,16.288-10.159,32.944l-5.257,31.014   H981.59l14.544-86.743h11.565l-3.33,19.272c8.063-14.716,17.875-21.731,30.666-21.731c14.55,0,25.586,10.518,25.586,24.362   c0,3.679-0.523,8.939-1.577,14.721l-8.234,50.119H1038.019z"/>
	<path clip-path="url(#SVGID_2_)" fill="#F0F0F0" d="M1153.328,65.41c7.882,6.304,11.39,12.785,11.39,21.373   c0,18.052-14.545,31.548-34.346,31.548c-5.962,0-10.522-1.053-16.656-3.679c-7.534,3.503-11.208,7.357-11.208,11.737   c0,2.106,1.226,3.86,3.851,4.732c2.636,0.877,3.684,0.877,19.801,1.225c17.004,0.177,24.014,1.225,29.094,4.561   c6.133,3.851,9.293,9.46,9.293,16.641c0,17.528-14.196,26.646-41.537,26.646c-28.388,0-42.579-7.011-42.579-20.859   c0-8.235,5.775-15.069,15.945-18.753c-5.085-3.149-6.839-5.957-6.839-11.213c0-8.411,5.433-14.016,18.052-19.101   c-6.656-5.262-9.636-11.57-9.636-20.154c0-17.87,14.539-30.666,34.875-30.666c4.379,0,6.657,0.353,13.491,2.278 M1093.573,156.355   c0,8.765,11.913,13.844,32.415,13.844c16.65,0,25.763-4.908,25.763-14.021c0-7.534-5.61-9.988-23.662-10.165   c-11.036,0-15.769-0.347-23.479-1.749C1097.423,146.542,1093.573,150.751,1093.573,156.355 M1111.268,90.113   c0,11.219,7.357,18.577,18.575,18.577c12.438,0,21.385-8.406,21.385-20.326c0-11.394-7.54-18.929-19.106-18.929   C1119.85,69.436,1111.268,77.848,1111.268,90.113"/>
	<path clip-path="url(#SVGID_2_)" fill="#F0F0F0" d="M1220.651,9.61c-49.472-1.894-60.788,20.034-69.542,46.29   c16.656-25.239,41.221-33.058,79.121-28.44c-43.245-1.962-70.01,19.853-83.868,44.131c0.83,0.089,7.871-11.571,29.96-12.432   c13.507-0.524,49.808,8.582,74.445-6.019c22.006-13.05,23.137-52.719,23.209-53.14C1273.23,0.607,1269.11,11.463,1220.651,9.61"/>
	<polygon clip-path="url(#SVGID_2_)" fill="#F0F0F0" points="943.384,45.953 946.181,30.008 963.531,30.008 960.912,45.953  "/>
	<polygon clip-path="url(#SVGID_2_)" fill="#F0F0F0" points="798.98,45.953 801.782,30.008 819.135,30.008 816.504,45.953  "/>
</g>
</svg>