<svg xmlns="http://www.w3.org/2000/svg" width="108.61" height="20" viewBox="0 0 108.61 20"><defs><style>.a{fill:#fffefe;}</style></defs><g transform="translate(-12.533 -19.408)"><path class="a" d="M.521,38.005c2.3.107,6.062.215,8.234.215,9.48,0,10.61-.02,10.61-5.172,0-4.066-1.193-4.391-6.215-4.542l-5.827-.175c-2.672-.088-2.716-.37-2.716-1.564,0-1.24.326-1.24,6.738-1.24,1.217,0,5.087.064,7.132.109a.289.289,0,0,0,.326-.326V22.658a.308.308,0,0,0-.306-.346c-2.023-.112-5.324-.219-7.695-.219-9.3,0-10.8.173-10.8,4.977,0,4.11.911,4.653,6.867,4.85l5.346.173c2.5.087,2.545.392,2.545,1.325,0,1.285-.109,1.349-6.022,1.349-2.761,0-5.608-.109-8.2-.2-.217-.02-.326.088-.326.306v2.783a.31.31,0,0,0,.306.348m100.322-5.761H93.888l3.195-6.327h.569Zm-20.313-2.2v.219c0,4.021-.326,4.152-5.542,4.152h-4.3V25.9h4.3c5.216,0,5.542.133,5.542,4.152m-22.569,0v.219c0,4.391-.173,4.456-5.3,4.456s-5.306-.064-5.306-4.456v-.219c0-4.389.175-4.456,5.306-4.456s5.3.066,5.3,4.456m50.6,7.544-7.5-15.02a.36.36,0,0,0-.372-.241H94.043a.354.354,0,0,0-.37.241l-7.5,15.02c-.109.241-.018.392.241.392h4.323a.352.352,0,0,0,.37-.241l1.134-2.216H102.5l1.128,2.216a.358.358,0,0,0,.374.241h4.325c.261,0,.348-.151.241-.392m-33.6-15.261H66.292a.291.291,0,0,0-.328.328v15a.29.29,0,0,0,.328.326h8.674c9.281,0,10.5-.458,10.5-7.761v-.131c0-7.3-1.218-7.761-10.5-7.761M41.386,37.591l-8.652-8.457,8.129-6.412c.241-.173.151-.392-.153-.392h-5.3a.563.563,0,0,0-.392.153l-8.3,6.631V22.658a.289.289,0,0,0-.326-.328H22.343a.29.29,0,0,0-.328.328v15a.289.289,0,0,0,.328.326h4.043a.288.288,0,0,0,.326-.326V33.876l2.457-1.936,5.954,5.871a.522.522,0,0,0,.414.173h5.694c.283,0,.372-.2.155-.392m.922-7.544v.219c0,7.584,1.244,8.045,10.351,8.045s10.349-.46,10.349-8.068v-.2c0-7.584-1.24-8.041-10.349-8.041s-10.351.456-10.351,8.041M5.67,18.7l1.978,2.258a.449.449,0,0,0,.392.175h4.152a.442.442,0,0,0,.39-.175l1.98-2.258c.173-.2.109-.392-.175-.392h-2.8a.47.47,0,0,0-.394.193l-.847,1.22H9.887L9.04,18.5a.479.479,0,0,0-.412-.193H5.845c-.285,0-.346.193-.175.392" transform="translate(12.533 1.097)"/></g></svg>