<?xml version="1.0" encoding="UTF-8"?>
<!-- Generator: Adobe Illustrator 15.1.0, SVG Export Plug-In  -->
<!DOCTYPE svg PUBLIC "-//W3C//DTD SVG 1.1//EN" "http://www.w3.org/Graphics/SVG/1.1/DTD/svg11.dtd">
<svg version="1.1" xmlns="http://www.w3.org/2000/svg" xmlns:xlink="http://www.w3.org/1999/xlink" xmlns:a="http://ns.adobe.com/AdobeSVGViewerExtensions/3.0/" x="0px" y="0px" width="132px" height="67px" viewBox="0 0 132 67" enable-background="new 0 0 132 67" xml:space="preserve">
<defs>
</defs>
<g>
	<defs>
		<rect id="SVGID_1_" y="0" width="131.734" height="66.72"/>
	</defs>
	<clipPath id="SVGID_2_">
		<use xlink:href="#SVGID_1_" overflow="visible"/>
	</clipPath>
	<path clip-path="url(#SVGID_2_)" fill="#76B828" d="M79.999,25.718h-8.685v15.306h4.267v-5.551h4.418   c2.696,0,4.89-2.193,4.89-4.887C84.889,27.902,82.695,25.718,79.999,25.718 M75.581,29.985h4.418c0.326,0,0.602,0.274,0.602,0.601   c0,0.336-0.275,0.62-0.602,0.62h-4.418V29.985z"/>
	<path clip-path="url(#SVGID_2_)" fill="#76B828" d="M89.89,25.719l-5.889,15.305h4.609l0.689-1.795h5.452l0.688,1.795h4.612   L94.14,25.719H89.89z M93.119,34.963h-2.188l1.086-2.853L93.119,34.963z"/>
	<path clip-path="url(#SVGID_2_)" fill="#76B828" d="M115.387,30.586c0-2.684-2.193-4.868-4.888-4.868h-8.686v15.306h4.268v-5.551   h2.962l2.17,5.551h4.681l-2.594-6.439C114.595,33.673,115.387,32.169,115.387,30.586 M106.081,29.985h4.418   c0.325,0,0.601,0.274,0.601,0.601c0,0.336-0.275,0.62-0.601,0.62h-4.418V29.985z"/>
	<polygon clip-path="url(#SVGID_2_)" fill="#76B828" points="125.884,32.073 131.259,25.698 125.665,25.698 122.394,29.562    122.394,25.761 118.128,25.761 118.128,41.022 122.394,41.022 122.394,36.165 122.997,35.461 126.64,41.022 131.734,41.022  "/>
	<polygon clip-path="url(#SVGID_2_)" fill="#76B828" points="52.111,34.963 54.299,34.963 53.197,32.11  "/>
	<path clip-path="url(#SVGID_2_)" fill="#76B828" d="M0,66.72h66.72V0H0V66.72z M15.517,41.023h-4.25L5.378,25.698h4.61l3.405,8.911   l3.424-8.911h4.612L15.517,41.023z M27.937,40.981H23.67V25.718h4.266V40.981z M36.697,41.023l-5.889-15.325h4.61l3.405,8.911   l3.424-8.911h4.611l-5.911,15.325H36.697z M56.62,41.023l-0.688-1.795h-5.453l-0.688,1.795H45.18l5.89-15.305h4.25l5.912,15.305   H56.62z"/>
	<path clip-path="url(#SVGID_2_)" fill="#76B828" d="M75.761,20.892l1.042,2.588h-1.624l-0.902-2.309h-1.485v2.309h-1.478v-6.069   h3.467c1.032,0,1.884,0.842,1.884,1.876C76.664,19.964,76.299,20.562,75.761,20.892 M75.179,19.287c0-0.218-0.182-0.4-0.398-0.4   h-1.989v0.807h1.989C74.997,19.694,75.179,19.512,75.179,19.287"/>
	<polygon clip-path="url(#SVGID_2_)" fill="#76B828" points="78.106,17.411 82.856,17.411 82.856,18.895 79.583,18.895    79.583,19.704 82.146,19.704 82.146,21.18 79.583,21.18 79.583,21.987 82.856,21.987 82.856,23.464 78.106,23.464  "/>
	<path clip-path="url(#SVGID_2_)" fill="#76B828" d="M86.097,19.138l0.025,0.062c0.113,0.199,0.313,0.268,0.514,0.337   c0.46,0.148,0.945,0.252,1.397,0.444c0.183,0.078,0.365,0.173,0.53,0.286c0.234,0.165,0.442,0.374,0.573,0.634   c0.242,0.469,0.225,1.05-0.019,1.529c-0.233,0.469-0.668,0.833-1.154,1.042c-0.486,0.208-1.034,0.261-1.555,0.226   c-0.859-0.061-1.711-0.374-2.336-0.964l1.19-1.104c0.451,0.452,1.094,0.713,1.728,0.696c0.348-0.009,0.765-0.166,0.703-0.574   c-0.009-0.035-0.017-0.06-0.026-0.078c-0.12-0.269-0.373-0.374-0.615-0.452c-0.384-0.13-0.782-0.208-1.164-0.338   c-0.382-0.131-0.755-0.313-1.024-0.617c-0.287-0.304-0.435-0.721-0.435-1.138c0.008-0.417,0.174-0.834,0.46-1.137   c0.304-0.347,0.737-0.555,1.189-0.677c0.557-0.156,1.146-0.165,1.711-0.052c0.582,0.112,1.139,0.364,1.606,0.737l-0.495,0.478   c-0.217,0.218-0.451,0.434-0.678,0.651c-0.407-0.46-1.076-0.677-1.675-0.529C86.297,18.66,86.01,18.834,86.097,19.138"/>
	<polygon clip-path="url(#SVGID_2_)" fill="#76B828" points="90.7,17.411 95.45,17.411 95.45,18.895 92.177,18.895 92.177,19.704    94.738,19.704 94.738,21.18 92.177,21.18 92.177,21.987 95.45,21.987 95.45,23.464 90.7,23.464  "/>
	<path clip-path="url(#SVGID_2_)" fill="#76B828" d="M101.112,22.734h-2.474l-0.287,0.746h-1.598l2.337-6.07h1.562l2.345,6.07H101.4   L101.112,22.734z M100.549,21.257l-0.678-1.755l-0.669,1.755H100.549z"/>
	<path clip-path="url(#SVGID_2_)" fill="#76B828" d="M108.548,20.892l1.043,2.588h-1.625l-0.903-2.309h-1.485v2.309h-1.476v-6.069   h3.465c1.033,0,1.884,0.842,1.884,1.876C109.45,19.964,109.087,20.562,108.548,20.892 M107.966,19.287c0-0.218-0.184-0.4-0.399-0.4   h-1.989v0.807h1.989C107.782,19.694,107.966,19.512,107.966,19.287"/>
	<path clip-path="url(#SVGID_2_)" fill="#76B828" d="M112.022,20.441c0,0.895,0.729,1.615,1.624,1.615   c0.442,0,0.852-0.174,1.163-0.486l1.06,1.024c-0.591,0.609-1.381,0.948-2.223,0.948c-1.711,0-3.101-1.39-3.101-3.101   c0-1.71,1.39-3.1,3.101-3.1c0.902,0,1.763,0.399,2.354,1.085l-1.12,0.964c-0.313-0.364-0.765-0.572-1.233-0.572   C112.752,18.818,112.022,19.546,112.022,20.441"/>
	<polygon clip-path="url(#SVGID_2_)" fill="#76B828" points="120.924,17.428 122.401,17.428 122.401,23.48 120.924,23.48    120.924,21.396 118.606,21.396 118.606,23.48 117.129,23.48 117.129,17.428 118.606,17.428 118.606,19.919 120.924,19.919  "/>
</g>
</svg>