<svg xmlns="http://www.w3.org/2000/svg" width="40" height="40" viewBox="0 0 40 40"><defs><style>.a{fill:#292930;}.b{fill:#fffefe;fill-rule:evenodd;}</style></defs><g transform="translate(-1046 -172)"><rect class="a" width="40" height="40" rx="6" transform="translate(1086 212) rotate(180)"/><path class="b" d="M29978.117,331.681a1.09,1.09,0,0,1,.137,1.413,1.01,1.01,0,0,1-1.418.094l-2.414-2.051v9.807a.992.992,0,1,1-1.984,0v-9.807l-2.27,2.051a1,1,0,0,1-1.418-.094.941.941,0,0,1,0-1.413l4.113-3.5a.943.943,0,0,1,1.277,0Zm-12.629-2.75a.992.992,0,1,1-1.984,0v-3a1.967,1.967,0,0,1,1.984-2h16.027a1.97,1.97,0,0,1,1.988,2v3a.994.994,0,1,1-1.988,0v-3h-16.027Z" transform="translate(-28907.504 -140.945)"/></g></svg>