<svg xmlns="http://www.w3.org/2000/svg" width="40" height="40" viewBox="0 0 40 40"><defs><style>.a{fill:#292930;}.b{fill:#fffefe;fill-rule:evenodd;}</style></defs><g transform="translate(-736 -605)"><rect class="a" width="40" height="40" rx="6" transform="translate(736 605)"/><path class="b" d="M1063.232,270.706a9.17,9.17,0,1,1,9.17,9.167A9.168,9.168,0,0,1,1063.232,270.706Zm9.17-11a11,11,0,1,0,11,11A11,11,0,0,0,1072.4,259.7Zm-1.325,6.571a.9.9,0,0,0-.935-.046.923.923,0,0,0-.493.808v7.334a.925.925,0,0,0,.493.808.906.906,0,0,0,.935-.045l5.507-3.667a.924.924,0,0,0,0-1.526Zm3.338,4.429-2.923,1.954v-3.908Z" transform="translate(-316.4 354.295)"/></g></svg>